<?xml version="1.0" standalone="no"?>
 <!DOCTYPE svg PUBLIC "-//W3C//DTD SVG 1.1//EN" 
 "http://www.w3.org/Graphics/SVG/1.1/DTD/svg11.dtd"> 
<svg
  xmlns:svg="http://www.w3.org/2000/svg"
  xmlns="http://www.w3.org/2000/svg"
  xmlns:xlink="http://www.w3.org/1999/xlink"
  version="1.1"
  width="594.0044mm" height="419.9890mm" viewBox="0.0000 0.0000 594.0044 419.9890">
<title>SVG Image created as A1200KBv2-Edge_Cuts.svg date 2024/06/21 10:16:23 </title>
  <desc>Image generated by PCBNEW </desc>
<g style="fill:#000000; fill-opacity:1.0000;stroke:#000000; stroke-opacity:1.0000;
stroke-linecap:round; stroke-linejoin:round;"
 transform="translate(0 0) scale(1 1)">
</g>
<g style="fill:none; 
stroke:#000000; stroke-width:0.1500; stroke-opacity:1; 
stroke-linecap:round; stroke-linejoin:round;">
<path d="M300.9852 23.4964
L300.9852 50.4964
" />
<path d="M22.9852 148.4964
L472.9852 148.4964
" />
<path d="M22.9852 23.4964
L22.9852 148.4964
" />
<path d="M300.9852 50.4964
L472.9852 50.4964
" />
<path d="M472.9852 50.4964
L472.9852 148.4964
" />
<path d="M22.9852 23.4964
L300.9852 23.4964
" />
<path style="fill:none; 
stroke:#000000; stroke-width:0.0500; stroke-opacity:1; 
stroke-linecap:round; stroke-linejoin:round;fill:none"
d="M 298.6560,76.3688
316.6560,76.3688
316.6560,82.3688
298.6560,82.3688
Z" /> 
<path style="fill:none; 
stroke:#000000; stroke-width:0.0500; stroke-opacity:1; 
stroke-linecap:round; stroke-linejoin:round;fill:none"
d="M 298.6560,100.3688
316.6560,100.3688
316.6560,106.3688
298.6560,106.3688
Z" /> 
<path style="fill:none; 
stroke:#000000; stroke-width:0.0500; stroke-opacity:1; 
stroke-linecap:round; stroke-linejoin:round;fill:none"
d="M 101.7580,129.8668
107.7580,129.8668
107.7580,147.8668
101.7580,147.8668
Z" /> 
<path style="fill:none; 
stroke:#000000; stroke-width:0.0500; stroke-opacity:1; 
stroke-linecap:round; stroke-linejoin:round;fill:none"
d="M 111.2580,129.8668
117.2580,129.8668
117.2580,147.8668
111.2580,147.8668
Z" /> 
<path style="fill:none; 
stroke:#000000; stroke-width:0.0500; stroke-opacity:1; 
stroke-linecap:round; stroke-linejoin:round;fill:none"
d="M 118.2580,129.8668
124.2580,129.8668
124.2580,147.8668
118.2580,147.8668
Z" /> 
<path style="fill:none; 
stroke:#000000; stroke-width:0.0500; stroke-opacity:1; 
stroke-linecap:round; stroke-linejoin:round;fill:none"
d="M 218.2580,129.8668
224.2580,129.8668
224.2580,147.8668
218.2580,147.8668
Z" /> 
<path style="fill:none; 
stroke:#000000; stroke-width:0.0500; stroke-opacity:1; 
stroke-linecap:round; stroke-linejoin:round;fill:none"
d="M 225.2580,129.8668
231.2580,129.8668
231.2580,147.8668
225.2580,147.8668
Z" /> 
<path style="fill:none; 
stroke:#000000; stroke-width:0.0500; stroke-opacity:1; 
stroke-linecap:round; stroke-linejoin:round;fill:none"
d="M 234.7580,129.8668
240.7580,129.8668
240.7580,147.8668
234.7580,147.8668
Z" /> 
<path style="fill:none; 
stroke:#000000; stroke-width:0.0500; stroke-opacity:1; 
stroke-linecap:round; stroke-linejoin:round;fill:none"
d="M 278.4320,110.8168
284.4320,110.8168
284.4320,128.8168
278.4320,128.8168
Z" /> 
<path style="fill:none; 
stroke:#000000; stroke-width:0.0500; stroke-opacity:1; 
stroke-linecap:round; stroke-linejoin:round;fill:none"
d="M 302.4320,110.8168
308.4320,110.8168
308.4320,128.8168
302.4320,128.8168
Z" /> 
<path style="fill:none; 
stroke:#000000; stroke-width:0.0500; stroke-opacity:1; 
stroke-linecap:round; stroke-linejoin:round;fill:none"
d="M 452.6940,120.2704
470.6940,120.2704
470.6940,114.2704
452.6940,114.2704
Z" /> 
<path style="fill:none; 
stroke:#000000; stroke-width:0.0500; stroke-opacity:1; 
stroke-linecap:round; stroke-linejoin:round;fill:none"
d="M 452.6940,144.2704
470.6940,144.2704
470.6940,138.2704
452.6940,138.2704
Z" /> 
<path style="fill:none; 
stroke:#000000; stroke-width:0.0500; stroke-opacity:1; 
stroke-linecap:round; stroke-linejoin:round;fill:none"
d="M 399.1960,129.7684
405.1960,129.7684
405.1960,147.7684
399.1960,147.7684
Z" /> 
<path style="fill:none; 
stroke:#000000; stroke-width:0.0500; stroke-opacity:1; 
stroke-linecap:round; stroke-linejoin:round;fill:none"
d="M 423.1960,129.7684
429.1960,129.7684
429.1960,147.7684
423.1960,147.7684
Z" /> 
<path style="fill:none; 
stroke:#000000; stroke-width:0.0500; stroke-opacity:1; 
stroke-linecap:round; stroke-linejoin:round;fill:none"
d="M 28.2420,72.7168
34.2420,72.7168
34.2420,90.7168
28.2420,90.7168
Z" /> 
<path style="fill:none; 
stroke:#000000; stroke-width:0.0500; stroke-opacity:1; 
stroke-linecap:round; stroke-linejoin:round;fill:none"
d="M 52.2420,72.7168
58.2420,72.7168
58.2420,90.7168
52.2420,90.7168
Z" /> 
</g>
<g style="fill:none; 
stroke:#000000; stroke-width:0.1500; stroke-opacity:1; 
stroke-linecap:round; stroke-linejoin:round;">
<path d="M300.9852 23.4964
L300.9852 50.4964
" />
<path d="M22.9852 148.4964
L472.9852 148.4964
" />
<path d="M22.9852 23.4964
L22.9852 148.4964
" />
<path d="M300.9852 50.4964
L472.9852 50.4964
" />
<path d="M472.9852 50.4964
L472.9852 148.4964
" />
<path d="M22.9852 23.4964
L300.9852 23.4964
" />
<path style="fill:none; 
stroke:#000000; stroke-width:0.0500; stroke-opacity:1; 
stroke-linecap:round; stroke-linejoin:round;fill:none"
d="M 298.6560,76.3688
316.6560,76.3688
316.6560,82.3688
298.6560,82.3688
Z" /> 
<path style="fill:none; 
stroke:#000000; stroke-width:0.0500; stroke-opacity:1; 
stroke-linecap:round; stroke-linejoin:round;fill:none"
d="M 298.6560,100.3688
316.6560,100.3688
316.6560,106.3688
298.6560,106.3688
Z" /> 
<path style="fill:none; 
stroke:#000000; stroke-width:0.0500; stroke-opacity:1; 
stroke-linecap:round; stroke-linejoin:round;fill:none"
d="M 101.7580,129.8668
107.7580,129.8668
107.7580,147.8668
101.7580,147.8668
Z" /> 
<path style="fill:none; 
stroke:#000000; stroke-width:0.0500; stroke-opacity:1; 
stroke-linecap:round; stroke-linejoin:round;fill:none"
d="M 111.2580,129.8668
117.2580,129.8668
117.2580,147.8668
111.2580,147.8668
Z" /> 
<path style="fill:none; 
stroke:#000000; stroke-width:0.0500; stroke-opacity:1; 
stroke-linecap:round; stroke-linejoin:round;fill:none"
d="M 118.2580,129.8668
124.2580,129.8668
124.2580,147.8668
118.2580,147.8668
Z" /> 
<path style="fill:none; 
stroke:#000000; stroke-width:0.0500; stroke-opacity:1; 
stroke-linecap:round; stroke-linejoin:round;fill:none"
d="M 218.2580,129.8668
224.2580,129.8668
224.2580,147.8668
218.2580,147.8668
Z" /> 
<path style="fill:none; 
stroke:#000000; stroke-width:0.0500; stroke-opacity:1; 
stroke-linecap:round; stroke-linejoin:round;fill:none"
d="M 225.2580,129.8668
231.2580,129.8668
231.2580,147.8668
225.2580,147.8668
Z" /> 
<path style="fill:none; 
stroke:#000000; stroke-width:0.0500; stroke-opacity:1; 
stroke-linecap:round; stroke-linejoin:round;fill:none"
d="M 234.7580,129.8668
240.7580,129.8668
240.7580,147.8668
234.7580,147.8668
Z" /> 
<path style="fill:none; 
stroke:#000000; stroke-width:0.0500; stroke-opacity:1; 
stroke-linecap:round; stroke-linejoin:round;fill:none"
d="M 278.4320,110.8168
284.4320,110.8168
284.4320,128.8168
278.4320,128.8168
Z" /> 
<path style="fill:none; 
stroke:#000000; stroke-width:0.0500; stroke-opacity:1; 
stroke-linecap:round; stroke-linejoin:round;fill:none"
d="M 302.4320,110.8168
308.4320,110.8168
308.4320,128.8168
302.4320,128.8168
Z" /> 
<path style="fill:none; 
stroke:#000000; stroke-width:0.0500; stroke-opacity:1; 
stroke-linecap:round; stroke-linejoin:round;fill:none"
d="M 452.6940,120.2704
470.6940,120.2704
470.6940,114.2704
452.6940,114.2704
Z" /> 
<path style="fill:none; 
stroke:#000000; stroke-width:0.0500; stroke-opacity:1; 
stroke-linecap:round; stroke-linejoin:round;fill:none"
d="M 452.6940,144.2704
470.6940,144.2704
470.6940,138.2704
452.6940,138.2704
Z" /> 
<path style="fill:none; 
stroke:#000000; stroke-width:0.0500; stroke-opacity:1; 
stroke-linecap:round; stroke-linejoin:round;fill:none"
d="M 399.1960,129.7684
405.1960,129.7684
405.1960,147.7684
399.1960,147.7684
Z" /> 
<path style="fill:none; 
stroke:#000000; stroke-width:0.0500; stroke-opacity:1; 
stroke-linecap:round; stroke-linejoin:round;fill:none"
d="M 423.1960,129.7684
429.1960,129.7684
429.1960,147.7684
423.1960,147.7684
Z" /> 
<path style="fill:none; 
stroke:#000000; stroke-width:0.0500; stroke-opacity:1; 
stroke-linecap:round; stroke-linejoin:round;fill:none"
d="M 28.2420,72.7168
34.2420,72.7168
34.2420,90.7168
28.2420,90.7168
Z" /> 
<path style="fill:none; 
stroke:#000000; stroke-width:0.0500; stroke-opacity:1; 
stroke-linecap:round; stroke-linejoin:round;fill:none"
d="M 52.2420,72.7168
58.2420,72.7168
58.2420,90.7168
52.2420,90.7168
Z" /> 
</g> 
</svg>
