<?xml version="1.0" standalone="no"?>
 <!DOCTYPE svg PUBLIC "-//W3C//DTD SVG 1.1//EN" 
 "http://www.w3.org/Graphics/SVG/1.1/DTD/svg11.dtd"> 
<svg
  xmlns:svg="http://www.w3.org/2000/svg"
  xmlns="http://www.w3.org/2000/svg"
  xmlns:xlink="http://www.w3.org/1999/xlink"
  version="1.1"
  width="450.1388mm" height="125.1458mm" viewBox="0.0000 0.0000 450.1388 125.1458">
<title>SVG Image created as A1200KBv2-brd.svg date 2024/07/10 05:12:40 </title>
  <desc>Image generated by PCBNEW </desc>
<g style="fill:#000000; fill-opacity:1.0000;stroke:#000000; stroke-opacity:1.0000;
stroke-linecap:round; stroke-linejoin:round;"
 transform="translate(0 0) scale(1 1)">
</g>
<g style="fill:none; 
stroke:#000000; stroke-width:0.1000; stroke-opacity:1; 
stroke-linecap:round; stroke-linejoin:round;">
<circle cx="381.6338" cy="58.1970" r="2.1213" /> 
<circle cx="67.8298" cy="58.2954" r="2.1213" /> 
<circle cx="58.4318" cy="39.2454" r="2.1213" /> 
<circle cx="77.4818" cy="39.2454" r="2.1213" /> 
<circle cx="206.0058" cy="77.3454" r="2.1213" /> 
<circle cx="65.7978" cy="10.5886" r="2.1213" /> 
<circle cx="13.2198" cy="77.3454" r="2.1213" /> 
<circle cx="120.4078" cy="96.3954" r="2.1213" /> 
<circle cx="225.3098" cy="77.3454" r="2.1213" /> 
<circle cx="193.8138" cy="10.5886" r="2.1213" /> 
<circle cx="26.9358" cy="115.4454" r="2.1213" /> 
<circle cx="163.0798" cy="58.2954" r="2.1213" /> 
<circle cx="186.9558" cy="77.3454" r="2.1213" /> 
<circle cx="169.9318" cy="10.5886" r="2.1213" /> 
<circle cx="234.7078" cy="96.3954" r="2.1213" /> 
<circle cx="63.2578" cy="96.3954" r="2.1213" /> 
<circle cx="158.5078" cy="96.3954" r="2.1213" /> 
<circle cx="148.8558" cy="77.3454" r="2.1213" /> 
<circle cx="86.8798" cy="58.2954" r="2.1213" /> 
<circle cx="353.0050" cy="96.3446" r="2.1213" /> 
<circle cx="438.7838" cy="105.8490" r="2.1213" /> 
<circle cx="348.2290" cy="39.1806" r="2.1213" /> 
<circle cx="53.6058" cy="77.3454" r="2.1213" /> 
<circle cx="314.9050" cy="96.3446" r="2.1213" /> 
<circle cx="438.7838" cy="58.1970" r="2.1213" /> 
<circle cx="391.2858" cy="115.3470" r="2.1213" /> 
<circle cx="101.3578" cy="96.3954" r="2.1213" /> 
<circle cx="201.1798" cy="58.2954" r="2.1213" /> 
<circle cx="229.8818" cy="39.2454" r="2.1213" /> 
<circle cx="270.5218" cy="96.3954" r="2.1213" /> 
<circle cx="244.3598" cy="77.3454" r="2.1213" /> 
<circle cx="15.6038" cy="39.2454" r="2.1213" /> 
<circle cx="246.1378" cy="115.4454" r="2.1213" /> 
<circle cx="333.9550" cy="77.2946" r="2.1213" /> 
<circle cx="115.5818" cy="39.2454" r="2.1213" /> 
<circle cx="172.7318" cy="39.2454" r="2.1213" /> 
<circle cx="314.9050" cy="96.3446" r="2.1213" /> 
<circle cx="267.9818" cy="39.2454" r="2.1213" /> 
<circle cx="167.9058" cy="77.3454" r="2.1213" /> 
<circle cx="419.7338" cy="77.2470" r="2.1213" /> 
<circle cx="215.6518" cy="96.4174" r="2.1213" /> 
<circle cx="39.3818" cy="39.2454" r="2.1213" /> 
<circle cx="20.3318" cy="58.2954" r="2.1213" /> 
<circle cx="220.2298" cy="58.2954" r="2.1213" /> 
<circle cx="314.9050" cy="96.3446" r="2.1213" /> 
<circle cx="91.7058" cy="77.3454" r="2.1213" /> 
<circle cx="110.7558" cy="77.3454" r="2.1213" /> 
<circle cx="82.3078" cy="96.3954" r="2.1213" /> 
<circle cx="381.6338" cy="77.2470" r="2.1213" /> 
<circle cx="438.7838" cy="77.2470" r="2.1213" /> 
<circle cx="241.5658" cy="10.5886" r="2.1213" /> 
<circle cx="419.7338" cy="39.1470" r="2.1213" /> 
<circle cx="137.4258" cy="10.5886" r="2.1213" /> 
<circle cx="34.5558" cy="77.3454" r="2.1213" /> 
<circle cx="419.7338" cy="96.2970" r="2.1213" /> 
<circle cx="191.7818" cy="39.2454" r="2.1213" /> 
<circle cx="41.9822" cy="10.4734" r="2.1213" /> 
<circle cx="129.8058" cy="77.3454" r="2.1213" /> 
<circle cx="153.6818" cy="39.2454" r="2.1213" /> 
<circle cx="263.4098" cy="77.3454" r="2.1213" /> 
<circle cx="105.9298" cy="58.2954" r="2.1213" /> 
<circle cx="50.8118" cy="115.4454" r="2.1213" /> 
<circle cx="177.5578" cy="96.3954" r="2.1213" /> 
<circle cx="96.5318" cy="39.2454" r="2.1213" /> 
<circle cx="248.9318" cy="39.2454" r="2.1213" /> 
<circle cx="270.0138" cy="115.4454" r="2.1213" /> 
<circle cx="210.8318" cy="39.2454" r="2.1213" /> 
<circle cx="400.6838" cy="58.1970" r="2.1213" /> 
<circle cx="400.6838" cy="96.2970" r="2.1213" /> 
<circle cx="419.7338" cy="115.3470" r="2.1213" /> 
<circle cx="265.4418" cy="10.5886" r="2.1213" /> 
<circle cx="113.5498" cy="10.5886" r="2.1213" /> 
<circle cx="196.6118" cy="96.3974" r="2.1213" /> 
<circle cx="319.6330" cy="39.1806" r="2.1213" /> 
<circle cx="89.6738" cy="10.6166" r="2.1213" /> 
<circle cx="134.6318" cy="39.2454" r="2.1213" /> 
<circle cx="239.2798" cy="58.2954" r="2.1213" /> 
<circle cx="139.4578" cy="96.3954" r="2.1213" /> 
<circle cx="18.0458" cy="96.3954" r="2.1213" /> 
<circle cx="72.6558" cy="77.3454" r="2.1213" /> 
<circle cx="44.2078" cy="96.3954" r="2.1213" /> 
<circle cx="287.0318" cy="39.2454" r="2.1213" /> 
<circle cx="381.6338" cy="96.2970" r="2.1213" /> 
<circle cx="144.0298" cy="58.2954" r="2.1213" /> 
<circle cx="124.9798" cy="58.3742" r="2.1213" /> 
<circle cx="182.1298" cy="58.2954" r="2.1213" /> 
<circle cx="400.6838" cy="77.2470" r="2.1213" /> 
<circle cx="400.6838" cy="39.1470" r="2.1213" /> 
<circle cx="10.9338" cy="10.6866" r="2.1213" /> 
<circle cx="381.6338" cy="39.1470" r="2.1213" /> 
<circle cx="48.7798" cy="58.2954" r="2.1213" /> 
<circle cx="419.7338" cy="58.1970" r="2.1213" /> 
<circle cx="217.6898" cy="10.5886" r="2.1213" /> 
<circle cx="438.7838" cy="39.1470" r="2.1213" /> 
<circle cx="148.3478" cy="115.4454" r="2.1213" /> 
<circle cx="258.3298" cy="58.2954" r="2.1213" /> 
<circle cx="314.9050" cy="96.3446" r="2.1213" /> 
<circle cx="284.7458" cy="67.9474" r="2.1213" /> 
<circle cx="314.9050" cy="96.3446" r="2.1213" /> 
<circle cx="333.9550" cy="96.3446" r="2.1213" /> 
</g>
<g style="fill:none; 
stroke:#000000; stroke-width:0.0500; stroke-opacity:1; 
stroke-linecap:round; stroke-linejoin:round;">
<circle cx="225.0750" cy="120.0750" r="1.7500" /> 
</g>
<g style="fill:none; 
stroke:#000000; stroke-width:0.1500; stroke-opacity:1; 
stroke-linecap:round; stroke-linejoin:round;">
<path d="M0.0750 125.0750
L450.0750 125.0750
" />
</g>
<g style="fill:none; 
stroke:#000000; stroke-width:0.0500; stroke-opacity:1; 
stroke-linecap:round; stroke-linejoin:round;">
<circle cx="335.0750" cy="120.0750" r="1.7500" /> 
<circle cx="115.0750" cy="120.0750" r="1.7500" /> 
<circle cx="5.0750" cy="24.9366" r="1.7500" /> 
</g>
<g style="fill:none; 
stroke:#000000; stroke-width:0.8000; stroke-opacity:1; 
stroke-linecap:round; stroke-linejoin:round;">
<path d="M390.5750 23.0750
L390.5750 20.0750
" />
</g>
<g style="fill:none; 
stroke:#000000; stroke-width:0.0500; stroke-opacity:1; 
stroke-linecap:round; stroke-linejoin:round;">
<circle cx="445.0750" cy="24.9366" r="1.7500" /> 
<circle cx="368.4418" cy="8.0886" r="5.0000" /> 
<circle cx="445.0750" cy="87.0750" r="1.7500" /> 
<circle cx="115.0750" cy="24.9366" r="1.7500" /> 
</g>
<g style="fill:none; 
stroke:#000000; stroke-width:0.1500; stroke-opacity:1; 
stroke-linecap:round; stroke-linejoin:round;">
<path d="M0.0750 0.0750
L0.0750 125.0750
" />
</g>
<g style="fill:none; 
stroke:#000000; stroke-width:0.0500; stroke-opacity:1; 
stroke-linecap:round; stroke-linejoin:round;">
<circle cx="293.4418" cy="8.0886" r="5.0000" /> 
</g>
<g style="fill:none; 
stroke:#000000; stroke-width:0.8000; stroke-opacity:1; 
stroke-linecap:round; stroke-linejoin:round;">
<path d="M390.5750 16.0750
L390.5750 4.0750
" />
</g>
<g style="fill:none; 
stroke:#000000; stroke-width:0.0500; stroke-opacity:1; 
stroke-linecap:round; stroke-linejoin:round;">
<circle cx="5.0750" cy="87.0750" r="1.7500" /> 
</g>
<g style="fill:none; 
stroke:#000000; stroke-width:0.8000; stroke-opacity:1; 
stroke-linecap:round; stroke-linejoin:round;">
<path d="M418.0750 23.0750
L390.5750 23.0750
" />
</g>
<g style="fill:none; 
stroke:#000000; stroke-width:0.0500; stroke-opacity:1; 
stroke-linecap:round; stroke-linejoin:round;">
<circle cx="225.0750" cy="24.9366" r="1.7500" /> 
<circle cx="413.2838" cy="10.3970" r="5.0000" /> 
</g>
<g style="fill:none; 
stroke:#000000; stroke-width:0.1500; stroke-opacity:1; 
stroke-linecap:round; stroke-linejoin:round;">
<path d="M450.0750 0.0750
L450.0750 125.0750
" />
</g>
<g style="fill:none; 
stroke:#000000; stroke-width:0.8000; stroke-opacity:1; 
stroke-linecap:round; stroke-linejoin:round;">
<path d="M441.5750 23.0750
L422.0750 23.0750
" />
</g>
<g style="fill:none; 
stroke:#000000; stroke-width:0.0500; stroke-opacity:1; 
stroke-linecap:round; stroke-linejoin:round;">
<circle cx="441.2838" cy="10.3970" r="5.0000" /> 
</g>
<g style="fill:none; 
stroke:#000000; stroke-width:0.1500; stroke-opacity:1; 
stroke-linecap:round; stroke-linejoin:round;">
<path d="M0.0750 0.0750
L450.0750 0.0750
" />
</g>
<g style="fill:none; 
stroke:#000000; stroke-width:0.0500; stroke-opacity:1; 
stroke-linecap:round; stroke-linejoin:round;">
<circle cx="335.0750" cy="24.9366" r="1.7500" /> 
<path style="fill:none; 
stroke:#000000; stroke-width:0.0500; stroke-opacity:1; 
stroke-linecap:round; stroke-linejoin:round;fill:none"
d="M 275.7458,52.9474
290.7458,52.9474
290.7458,58.9474
275.7458,58.9474
Z" /> 
<path style="fill:none; 
stroke:#000000; stroke-width:0.0500; stroke-opacity:1; 
stroke-linecap:round; stroke-linejoin:round;fill:none"
d="M 275.7458,76.9474
290.7458,76.9474
290.7458,82.9474
275.7458,82.9474
Z" /> 
<path style="fill:none; 
stroke:#000000; stroke-width:0.0500; stroke-opacity:1; 
stroke-linecap:round; stroke-linejoin:round;fill:none"
d="M 79.1996,106.5204
85.1996,106.5204
85.1996,121.5204
79.1996,121.5204
Z" /> 
<path style="fill:none; 
stroke:#000000; stroke-width:0.0500; stroke-opacity:1; 
stroke-linecap:round; stroke-linejoin:round;fill:none"
d="M 212.1995,106.5204
218.1995,106.5204
218.1995,121.5204
212.1995,121.5204
Z" /> 
<path style="fill:none; 
stroke:#000000; stroke-width:0.0500; stroke-opacity:1; 
stroke-linecap:round; stroke-linejoin:round;fill:none"
d="M 255.5218,87.3954
261.5218,87.3954
261.5218,102.3954
255.5218,102.3954
Z" /> 
<path style="fill:none; 
stroke:#000000; stroke-width:0.0500; stroke-opacity:1; 
stroke-linecap:round; stroke-linejoin:round;fill:none"
d="M 279.5218,87.3954
285.5218,87.3954
285.5218,102.3954
279.5218,102.3954
Z" /> 
<path style="fill:none; 
stroke:#000000; stroke-width:0.0500; stroke-opacity:1; 
stroke-linecap:round; stroke-linejoin:round;fill:none"
d="M 429.7838,96.8490
444.7838,96.8490
444.7838,90.8490
429.7838,90.8490
Z" /> 
<path style="fill:none; 
stroke:#000000; stroke-width:0.0500; stroke-opacity:1; 
stroke-linecap:round; stroke-linejoin:round;fill:none"
d="M 429.7838,120.8490
444.7838,120.8490
444.7838,114.8490
429.7838,114.8490
Z" /> 
<path style="fill:none; 
stroke:#000000; stroke-width:0.0500; stroke-opacity:1; 
stroke-linecap:round; stroke-linejoin:round;fill:none"
d="M 376.2858,106.3470
382.2858,106.3470
382.2858,121.3470
376.2858,121.3470
Z" /> 
<path style="fill:none; 
stroke:#000000; stroke-width:0.0500; stroke-opacity:1; 
stroke-linecap:round; stroke-linejoin:round;fill:none"
d="M 400.2858,106.3470
406.2858,106.3470
406.2858,121.3470
400.2858,121.3470
Z" /> 
<path style="fill:none; 
stroke:#000000; stroke-width:0.0500; stroke-opacity:1; 
stroke-linecap:round; stroke-linejoin:round;fill:none"
d="M 5.3318,49.2954
11.3318,49.2954
11.3318,64.2954
5.3318,64.2954
Z" /> 
<path style="fill:none; 
stroke:#000000; stroke-width:0.0500; stroke-opacity:1; 
stroke-linecap:round; stroke-linejoin:round;fill:none"
d="M 29.3318,49.2954
35.3318,49.2954
35.3318,64.2954
29.3318,64.2954
Z" /> 
</g> 
</svg>
