%TF.GenerationSoftware,KiCad,Pcbnew,8.0.1*%
%TF.CreationDate,2024-06-21T10:07:37+10:00*%
%TF.ProjectId,A1200KBv2,41313230-304b-4427-9632-2e6b69636164,rev?*%
%TF.SameCoordinates,Original*%
%TF.FileFunction,Profile,NP*%
%FSLAX46Y46*%
G04 Gerber Fmt 4.6, Leading zero omitted, Abs format (unit mm)*
G04 Created by KiCad (PCBNEW 8.0.1) date 2024-06-21 10:07:37*
%MOMM*%
%LPD*%
G01*
G04 APERTURE LIST*
%TA.AperFunction,Profile*%
%ADD10C,0.150000*%
%TD*%
%TA.AperFunction,Profile*%
%ADD11C,0.050000*%
%TD*%
G04 APERTURE END LIST*
D10*
X300985200Y-23496400D02*
X300985200Y-50496400D01*
X22985200Y-148496400D02*
X472985200Y-148496400D01*
X22985200Y-23496400D02*
X22985200Y-148496400D01*
X300985200Y-50496400D02*
X472985200Y-50496400D01*
X472985200Y-50496400D02*
X472985200Y-148496400D01*
X22985200Y-23496400D02*
X300985200Y-23496400D01*
%TO.C,K32*%
D11*
X101758000Y-129866800D02*
X107758000Y-129866800D01*
X107758000Y-147866800D01*
X101758000Y-147866800D01*
X101758000Y-129866800D01*
X111258000Y-129866800D02*
X117258000Y-129866800D01*
X117258000Y-147866800D01*
X111258000Y-147866800D01*
X111258000Y-129866800D01*
X118258000Y-129866800D02*
X124258000Y-129866800D01*
X124258000Y-147866800D01*
X118258000Y-147866800D01*
X118258000Y-129866800D01*
X218258000Y-129866800D02*
X224258000Y-129866800D01*
X224258000Y-147866800D01*
X218258000Y-147866800D01*
X218258000Y-129866800D01*
X225258000Y-129866800D02*
X231258000Y-129866800D01*
X231258000Y-147866800D01*
X225258000Y-147866800D01*
X225258000Y-129866800D01*
X234758000Y-129866800D02*
X240758000Y-129866800D01*
X240758000Y-147866800D01*
X234758000Y-147866800D01*
X234758000Y-129866800D01*
%TO.C,K96*%
X452694000Y-120270400D02*
X470694000Y-120270400D01*
X470694000Y-114270400D01*
X452694000Y-114270400D01*
X452694000Y-120270400D01*
X452694000Y-144270400D02*
X470694000Y-144270400D01*
X470694000Y-138270400D01*
X452694000Y-138270400D01*
X452694000Y-144270400D01*
%TO.C,K83*%
X399196000Y-129768400D02*
X405196000Y-129768400D01*
X405196000Y-147768400D01*
X399196000Y-147768400D01*
X399196000Y-129768400D01*
X423196000Y-129768400D02*
X429196000Y-129768400D01*
X429196000Y-147768400D01*
X423196000Y-147768400D01*
X423196000Y-129768400D01*
%TO.C,K71*%
X298656000Y-76368800D02*
X316656000Y-76368800D01*
X316656000Y-82368800D01*
X298656000Y-82368800D01*
X298656000Y-76368800D01*
X298656000Y-100368800D02*
X316656000Y-100368800D01*
X316656000Y-106368800D01*
X298656000Y-106368800D01*
X298656000Y-100368800D01*
%TO.C,K66*%
X278432000Y-110816800D02*
X284432000Y-110816800D01*
X284432000Y-128816800D01*
X278432000Y-128816800D01*
X278432000Y-110816800D01*
X302432000Y-110816800D02*
X308432000Y-110816800D01*
X308432000Y-128816800D01*
X302432000Y-128816800D01*
X302432000Y-110816800D01*
%TO.C,K3*%
X28242000Y-72716800D02*
X34242000Y-72716800D01*
X34242000Y-90716800D01*
X28242000Y-90716800D01*
X28242000Y-72716800D01*
X52242000Y-72716800D02*
X58242000Y-72716800D01*
X58242000Y-90716800D01*
X52242000Y-90716800D01*
X52242000Y-72716800D01*
%TD*%
M02*
