M48
; DRILL file {KiCad 8.0.3} date 2024-07-09T08:04:09+1000
; FORMAT={-:-/ absolute / metric / decimal}
; #@! TF.CreationDate,2024-07-09T08:04:09+10:00
; #@! TF.GenerationSoftware,Kicad,Pcbnew,8.0.3
; #@! TF.FileFunction,Plated,1,2,PTH
FMAT,2
METRIC
; #@! TA.AperFunction,Plated,PTH,ViaDrill
T1C0.300
; #@! TA.AperFunction,Plated,PTH,ViaDrill
T2C0.500
; #@! TA.AperFunction,Plated,PTH,ComponentDrill
T3C0.850
; #@! TA.AperFunction,Plated,PTH,ComponentDrill
T4C1.000
; #@! TA.AperFunction,Plated,PTH,ComponentDrill
T5C1.450
%
G90
G05
T1
X68.015Y-110.504
X75.015Y-110.504
T2
X48.0Y-55.0
X49.5Y-62.0
X50.0Y-56.004
X50.0Y-75.0
X68.015Y-60.504
X74.515Y-58.004
X75.0Y-71.5
X85.015Y-106.504
X94.015Y-90.504
X110.5Y-73.0
X123.015Y-107.504
X134.015Y-57.004
X142.015Y-113.504
X155.5Y-74.5
X166.015Y-132.504
X176.015Y-91.504
X177.015Y-92.504
X177.015Y-100.504
X186.515Y-55.004
X189.015Y-56.004
X192.015Y-89.504
X196.515Y-57.004
X197.0Y-144.5
X198.0Y-145.5
X199.015Y-46.504
X199.015Y-90.504
X199.015Y-108.504
X200.015Y-82.504
X200.015Y-91.504
X202.015Y-47.504
X204.015Y-54.504
X210.0Y-146.0
X211.515Y-58.004
X223.015Y-125.504
X228.015Y-68.504
X228.015Y-74.504
X247.015Y-93.504
X259.5Y-67.504
X275.015Y-112.504
X278.015Y-132.504
X282.0Y-152.0
X286.0Y-59.0
X301.015Y-87.504
X302.015Y-126.504
X302.015Y-157.504
X303.5Y-69.0
X304.015Y-150.504
X305.015Y-151.504
X309.015Y-126.504
X310.015Y-116.504
X311.0Y-60.0
X313.015Y-87.504
X314.5Y-61.0
X335.015Y-102.504
X337.015Y-143.504
X358.015Y-102.504
X362.015Y-127.504
X384.015Y-89.504
X411.015Y-83.504
X411.015Y-106.504
X412.015Y-82.504
X412.015Y-145.504
X440.5Y-52.5
X447.0Y-47.0
X455.5Y-148.5
X466.0Y-44.5
T3
X174.015Y-60.66
X175.265Y-63.16
X176.515Y-60.66
X177.765Y-63.16
X179.015Y-60.66
X180.265Y-63.16
X181.515Y-60.66
X182.765Y-63.16
X184.015Y-60.66
X185.265Y-63.16
X186.515Y-60.66
X187.765Y-63.16
X189.015Y-60.66
X190.265Y-63.16
X191.515Y-60.66
X192.765Y-63.16
X194.015Y-60.66
X195.265Y-63.16
X196.515Y-60.66
X197.765Y-63.16
X199.015Y-60.66
X200.265Y-63.16
X201.515Y-60.66
X202.765Y-63.16
X204.015Y-60.66
X205.265Y-63.16
X206.515Y-60.66
X207.765Y-63.16
X209.015Y-60.66
X210.265Y-63.16
X211.515Y-60.66
X212.765Y-63.16
T4
X432.68Y-43.0
X435.22Y-43.0
X437.76Y-43.0
X440.3Y-43.0
T5
X48.259Y-44.862
X48.745Y-121.97
X51.129Y-83.87
X53.571Y-141.02
X55.259Y-45.912
X55.745Y-123.02
X55.857Y-102.92
X58.129Y-84.92
X60.571Y-142.07
X62.461Y-160.07
X62.857Y-103.97
X69.461Y-161.12
X70.081Y-121.97
X74.907Y-83.87
X77.081Y-123.02
X79.307Y-44.648
X79.733Y-141.02
X81.907Y-84.92
X84.305Y-102.92
X86.307Y-45.698
X86.337Y-160.07
X86.733Y-142.07
X89.131Y-121.97
X91.305Y-103.97
X93.337Y-161.12
X93.957Y-83.87
X96.131Y-123.02
X98.783Y-141.02
X100.957Y-84.92
X103.123Y-44.764
X103.355Y-102.92
X105.783Y-142.07
X108.181Y-121.97
X110.123Y-45.814
X110.355Y-103.97
X113.007Y-83.87
X115.181Y-123.02
X117.833Y-141.02
X120.007Y-84.92
X122.405Y-102.92
X124.833Y-142.07
X126.999Y-44.792
X127.231Y-121.97
X129.405Y-103.97
X132.057Y-83.87
X133.999Y-45.842
X134.231Y-123.02
X136.883Y-141.02
X139.057Y-84.92
X141.455Y-102.92
X143.883Y-142.07
X146.281Y-121.97
X148.455Y-103.97
X150.875Y-44.764
X151.107Y-83.87
X153.281Y-123.02
X155.933Y-141.02
X157.875Y-45.814
X158.107Y-84.92
X160.505Y-102.999
X162.933Y-142.07
X165.331Y-121.97
X167.505Y-104.049
X170.157Y-83.87
X172.331Y-123.02
X174.751Y-44.764
X174.983Y-141.02
X177.157Y-84.92
X179.555Y-102.92
X181.751Y-45.814
X181.983Y-142.07
X184.225Y-160.145
X184.381Y-121.97
X186.555Y-103.97
X189.207Y-83.87
X191.225Y-161.195
X191.381Y-123.02
X194.033Y-141.02
X196.207Y-84.92
X198.605Y-102.92
X201.033Y-142.07
X203.431Y-121.97
X205.605Y-103.97
X207.257Y-44.764
X208.257Y-83.87
X210.431Y-123.02
X213.083Y-141.02
X214.257Y-45.814
X215.257Y-84.92
X217.655Y-102.92
X220.083Y-142.07
X222.481Y-121.97
X224.655Y-103.97
X227.307Y-83.87
X229.481Y-123.02
X231.139Y-44.764
X232.137Y-141.022
X234.307Y-84.92
X236.705Y-102.92
X238.139Y-45.814
X239.137Y-142.072
X241.531Y-121.97
X243.705Y-103.97
X246.357Y-83.87
X248.531Y-123.02
X251.177Y-141.042
X253.357Y-84.92
X255.015Y-44.764
X255.755Y-102.92
X258.177Y-142.092
X260.835Y-121.97
X262.015Y-45.814
X262.755Y-103.97
X265.407Y-83.87
X267.835Y-123.02
X270.233Y-141.02
X272.407Y-84.92
X274.805Y-102.92
X277.233Y-142.07
X278.891Y-44.764
X279.885Y-121.97
X281.663Y-160.07
X281.805Y-103.97
X284.457Y-83.87
X285.891Y-45.814
X286.885Y-123.02
X288.663Y-161.12
X291.457Y-84.92
X293.855Y-102.92
X298.935Y-121.97
X300.855Y-103.97
X302.767Y-44.764
X303.507Y-83.87
X305.539Y-160.07
X305.935Y-123.02
X306.047Y-141.02
X309.767Y-45.814
X310.507Y-84.92
X312.539Y-161.12
X313.047Y-142.07
X322.557Y-83.87
X329.346Y-112.297
X329.557Y-84.92
X330.396Y-105.297
X350.43Y-140.97
X355.158Y-83.806
X357.43Y-142.02
X362.158Y-84.856
X369.48Y-121.92
X369.48Y-140.97
X376.48Y-122.97
X376.48Y-142.02
X383.754Y-83.806
X388.53Y-140.97
X390.754Y-84.856
X395.53Y-142.02
X417.159Y-83.772
X417.159Y-102.822
X417.159Y-121.872
X417.159Y-140.922
X424.159Y-84.822
X424.159Y-103.872
X424.159Y-122.922
X424.159Y-141.972
X426.811Y-159.972
X433.811Y-161.022
X436.209Y-83.772
X436.209Y-102.822
X436.209Y-121.872
X436.209Y-140.922
X443.209Y-84.822
X443.209Y-103.872
X443.209Y-122.922
X443.209Y-141.972
X455.259Y-83.772
X455.259Y-102.822
X455.259Y-121.872
X455.259Y-140.922
X455.259Y-159.972
X462.259Y-84.822
X462.259Y-103.872
X462.259Y-122.922
X462.259Y-141.972
X462.259Y-161.022
X474.309Y-83.772
X474.309Y-102.822
X474.309Y-121.872
X481.309Y-84.822
X481.309Y-103.872
X481.309Y-122.922
X483.409Y-150.174
X484.459Y-143.174
M30
