M48
; DRILL file {KiCad 8.0.1} date 2024-06-20T10:56:05+1000
; FORMAT={-:-/ absolute / metric / decimal}
; #@! TF.CreationDate,2024-06-20T10:56:05+10:00
; #@! TF.GenerationSoftware,Kicad,Pcbnew,8.0.1
; #@! TF.FileFunction,Plated,1,2,PTH
FMAT,2
METRIC
; #@! TA.AperFunction,Plated,PTH,ViaDrill
T1C0.300
; #@! TA.AperFunction,Plated,PTH,ViaDrill
T2C0.500
; #@! TA.AperFunction,Plated,PTH,ComponentDrill
T3C0.850
; #@! TA.AperFunction,Plated,PTH,ComponentDrill
T4C1.450
; #@! TA.AperFunction,Plated,PTH,ComponentDrill
T5C1.500
%
G90
G05
T1
X52.0Y-43.0
X52.0Y-95.0
X57.0Y-42.0
X58.0Y-94.0
X167.0Y-43.0
X194.0Y-42.0
X293.0Y-100.0
T2
X29.0Y-46.0
X30.0Y-47.0
X31.0Y-45.0
X32.0Y-48.0
X58.0Y-49.0
X68.0Y-90.0
X77.0Y-74.0
X93.0Y-50.0
X106.0Y-91.0
X117.0Y-44.0
X125.0Y-97.0
X141.0Y-51.0
X149.0Y-116.0
X159.0Y-75.0
X160.0Y-76.0
X160.0Y-84.0
X175.0Y-73.0
X180.0Y-137.0
X181.0Y-138.0
X182.0Y-30.0
X182.0Y-74.0
X182.0Y-92.0
X183.0Y-66.0
X183.0Y-75.0
X185.0Y-31.0
X187.0Y-38.0
X193.0Y-139.0
X206.0Y-109.0
X211.0Y-52.0
X211.0Y-58.0
X230.0Y-77.0
X245.0Y-51.0
X258.0Y-96.0
X261.0Y-116.0
X265.0Y-140.0
X268.0Y-47.0
X284.0Y-71.0
X285.0Y-110.0
X285.0Y-141.0
X288.0Y-135.0
X292.0Y-110.0
X293.0Y-50.0
X294.0Y-48.0
X296.0Y-49.0
X296.0Y-71.0
X303.0Y-87.0
X313.0Y-112.0
X341.0Y-87.0
X345.0Y-111.0
X367.0Y-73.0
X394.0Y-67.0
X394.0Y-90.0
X395.0Y-66.0
X395.0Y-143.0
X450.0Y-66.0
T3
X157.0Y-47.5
X158.25Y-50.0
X159.5Y-47.5
X160.75Y-50.0
X162.0Y-47.5
X163.25Y-50.0
X164.5Y-47.5
X165.75Y-50.0
X167.0Y-47.5
X168.25Y-50.0
X169.5Y-47.5
X170.75Y-50.0
X172.0Y-47.5
X173.25Y-50.0
X174.5Y-47.5
X175.75Y-50.0
X177.0Y-47.5
X178.25Y-50.0
X179.5Y-47.5
X180.75Y-50.0
X182.0Y-47.5
X183.25Y-50.0
X184.5Y-47.5
X185.75Y-50.0
X187.0Y-47.5
X188.25Y-50.0
X189.5Y-47.5
X190.75Y-50.0
X192.0Y-47.5
X193.25Y-50.0
X194.5Y-47.5
X195.75Y-50.0
T4
X166.858Y-143.567
X173.858Y-144.617
T5
X31.244Y-28.358
X31.73Y-105.467
X34.114Y-67.367
X36.556Y-124.517
X38.244Y-29.408
X38.73Y-106.517
X38.842Y-86.417
X41.114Y-68.417
X43.556Y-125.567
X45.446Y-143.567
X45.842Y-87.467
X52.446Y-144.617
X53.066Y-105.467
X57.892Y-67.367
X60.066Y-106.517
X62.292Y-28.145
X62.718Y-124.517
X64.892Y-68.417
X67.29Y-86.417
X69.292Y-29.195
X69.322Y-143.567
X69.718Y-125.567
X72.116Y-105.467
X74.29Y-87.467
X76.322Y-144.617
X76.942Y-67.367
X79.116Y-106.517
X81.768Y-124.517
X83.942Y-68.417
X86.108Y-28.26
X86.34Y-86.417
X88.768Y-125.567
X91.166Y-105.467
X93.108Y-29.31
X93.34Y-87.467
X95.992Y-67.367
X98.166Y-106.517
X100.818Y-124.517
X102.992Y-68.417
X105.39Y-86.417
X107.818Y-125.567
X109.984Y-28.288
X110.216Y-105.467
X112.39Y-87.467
X115.042Y-67.367
X116.984Y-29.338
X117.216Y-106.517
X119.868Y-124.517
X122.042Y-68.417
X124.44Y-86.417
X126.868Y-125.567
X129.266Y-105.467
X131.44Y-87.467
X133.86Y-28.26
X134.092Y-67.367
X136.266Y-106.517
X138.918Y-124.517
X140.86Y-29.31
X141.092Y-68.417
X143.49Y-86.496
X145.918Y-125.567
X148.316Y-105.467
X150.49Y-87.546
X153.142Y-67.367
X155.316Y-106.517
X157.736Y-28.26
X157.968Y-124.517
X160.142Y-68.417
X162.54Y-86.417
X164.736Y-29.31
X164.968Y-125.567
X167.366Y-105.467
X169.54Y-87.467
X172.192Y-67.367
X174.366Y-106.517
X177.018Y-124.517
X179.192Y-68.417
X181.59Y-86.417
X184.018Y-125.567
X186.416Y-105.467
X188.59Y-87.467
X190.242Y-28.26
X191.242Y-67.367
X193.416Y-106.517
X196.068Y-124.517
X197.242Y-29.31
X198.242Y-68.417
X200.64Y-86.417
X203.068Y-125.567
X205.466Y-105.467
X207.64Y-87.467
X210.292Y-67.367
X212.466Y-106.517
X214.124Y-28.26
X215.122Y-124.519
X217.292Y-68.417
X219.69Y-86.417
X221.124Y-29.31
X222.122Y-125.569
X224.516Y-105.467
X226.69Y-87.467
X229.342Y-67.367
X231.516Y-106.517
X234.162Y-124.539
X236.342Y-68.417
X238.0Y-28.26
X238.74Y-86.417
X241.162Y-125.589
X243.82Y-105.467
X245.0Y-29.31
X245.74Y-87.467
X248.392Y-67.367
X250.82Y-106.517
X253.218Y-124.517
X255.392Y-68.417
X257.79Y-86.417
X260.218Y-125.567
X261.876Y-28.26
X262.87Y-105.467
X264.648Y-143.567
X264.79Y-87.467
X267.442Y-67.367
X268.876Y-29.31
X269.87Y-106.517
X271.648Y-144.617
X274.442Y-68.417
X276.84Y-86.417
X281.92Y-105.467
X283.84Y-87.467
X285.752Y-28.26
X286.492Y-67.367
X288.524Y-143.567
X288.92Y-106.517
X289.032Y-124.517
X292.752Y-29.31
X293.492Y-68.417
X295.524Y-144.617
X296.032Y-125.567
X303.256Y-96.069
X305.542Y-67.367
X310.256Y-97.119
X312.542Y-68.417
X333.415Y-124.466
X338.143Y-67.302
X340.415Y-125.516
X345.143Y-68.352
X352.465Y-105.416
X352.465Y-124.466
X359.465Y-106.466
X359.465Y-125.516
X366.739Y-67.302
X371.515Y-124.466
X373.739Y-68.352
X378.515Y-125.516
X400.144Y-67.268
X400.144Y-86.318
X400.144Y-105.368
X400.144Y-124.418
X407.144Y-68.318
X407.144Y-87.368
X407.144Y-106.418
X407.144Y-125.468
X409.796Y-143.468
X416.796Y-144.518
X419.194Y-67.268
X419.194Y-86.318
X419.194Y-105.368
X419.194Y-124.418
X426.194Y-68.318
X426.194Y-87.368
X426.194Y-106.418
X426.194Y-125.468
X438.244Y-67.268
X438.244Y-86.318
X438.244Y-105.368
X438.244Y-124.418
X438.244Y-143.468
X445.244Y-68.318
X445.244Y-87.368
X445.244Y-106.418
X445.244Y-125.468
X445.244Y-144.518
X457.294Y-67.268
X457.294Y-86.318
X457.294Y-105.368
X457.294Y-133.97
X464.294Y-68.318
X464.294Y-87.368
X464.294Y-106.418
X464.294Y-135.02
M30
