%TF.GenerationSoftware,KiCad,Pcbnew,8.0.1*%
%TF.CreationDate,2024-06-21T10:07:37+10:00*%
%TF.ProjectId,A1200KBv2,41313230-304b-4427-9632-2e6b69636164,rev?*%
%TF.SameCoordinates,Original*%
%TF.FileFunction,Copper,L2,Bot*%
%TF.FilePolarity,Positive*%
%FSLAX46Y46*%
G04 Gerber Fmt 4.6, Leading zero omitted, Abs format (unit mm)*
G04 Created by KiCad (PCBNEW 8.0.1) date 2024-06-21 10:07:37*
%MOMM*%
%LPD*%
G01*
G04 APERTURE LIST*
%TA.AperFunction,ComponentPad*%
%ADD10C,2.300000*%
%TD*%
%TA.AperFunction,ComponentPad*%
%ADD11C,2.500000*%
%TD*%
%TA.AperFunction,ComponentPad*%
%ADD12C,1.524000*%
%TD*%
%TA.AperFunction,ViaPad*%
%ADD13C,1.000000*%
%TD*%
%TA.AperFunction,ViaPad*%
%ADD14C,0.600000*%
%TD*%
%TA.AperFunction,Conductor*%
%ADD15C,0.300000*%
%TD*%
G04 APERTURE END LIST*
D10*
%TO.P,K32,1,COL*%
%TO.N,/27*%
X166858000Y-143566800D03*
%TO.P,K32,2,ROW*%
%TO.N,/3*%
X173858000Y-144616800D03*
%TD*%
%TO.P,K96,2,ROW*%
%TO.N,/4*%
X467444000Y-126670400D03*
%TO.P,K96,1,COL*%
%TO.N,/24*%
X466394000Y-133670400D03*
%TD*%
%TO.P,K83,1,COL*%
%TO.N,/28*%
X409796000Y-143468400D03*
%TO.P,K83,2,ROW*%
%TO.N,/4*%
X416796000Y-144518400D03*
%TD*%
%TO.P,K71,1,COL*%
%TO.N,/1*%
X312331000Y-95793800D03*
%TO.P,K71,2,ROW*%
%TO.N,/28*%
X313381000Y-88793800D03*
%TD*%
%TO.P,K66,1,COL*%
%TO.N,/6*%
X289032000Y-124516800D03*
%TO.P,K66,2,ROW*%
%TO.N,/30*%
X296032000Y-125566800D03*
%TD*%
%TO.P,K3,1,COL*%
%TO.N,/15*%
X38842000Y-86416800D03*
%TO.P,K3,2,ROW*%
%TO.N,/1*%
X45842000Y-87466800D03*
%TD*%
D11*
%TO.P,K60,1,COL*%
%TO.N,/25*%
X253218000Y-124516800D03*
%TO.P,K60,2,ROW*%
%TO.N,/3*%
X260218000Y-125566800D03*
%TD*%
%TO.P,K8,1,COL*%
%TO.N,/16*%
X67290000Y-86416800D03*
%TO.P,K8,2,ROW*%
%TO.N,/1*%
X74290000Y-87466800D03*
%TD*%
%TO.P,K56,1,COL*%
%TO.N,/26*%
X245000000Y-29310000D03*
%TO.P,K56,2,ROW*%
%TO.N,/7*%
X238000000Y-28260000D03*
%TD*%
%TO.P,K64,1,COL*%
%TO.N,/27*%
X276840000Y-86416800D03*
%TO.P,K64,2,ROW*%
%TO.N,/1*%
X283840000Y-87466800D03*
%TD*%
%TO.P,K68,1,COL*%
%TO.N,/28*%
X292752000Y-29310000D03*
%TO.P,K68,2,ROW*%
%TO.N,/7*%
X285752000Y-28260000D03*
%TD*%
%TO.P,K53,1,COL*%
%TO.N,/25*%
X238740000Y-86416800D03*
%TO.P,K53,2,ROW*%
%TO.N,/1*%
X245740000Y-87466800D03*
%TD*%
%TO.P,K81,1,COL*%
%TO.N,/26*%
X400144000Y-105368400D03*
%TO.P,K81,2,ROW*%
%TO.N,/4*%
X407144000Y-106418400D03*
%TD*%
%TO.P,K26,1,COL*%
%TO.N,/18*%
X119868000Y-124516800D03*
%TO.P,K26,2,ROW*%
%TO.N,/3*%
X126868000Y-125566800D03*
%TD*%
%TO.P,K41,1,COL*%
%TO.N,/21*%
X177018000Y-124516800D03*
%TO.P,K41,2,ROW*%
%TO.N,/3*%
X184018000Y-125566800D03*
%TD*%
%TO.P,K34,1,COL*%
%TO.N,/21*%
X153142000Y-67366800D03*
%TO.P,K34,2,ROW*%
%TO.N,/5*%
X160142000Y-68416800D03*
%TD*%
%TO.P,K13,1,COL*%
%TO.N,/17*%
X76942000Y-67366800D03*
%TO.P,K13,2,ROW*%
%TO.N,/5*%
X83942000Y-68416800D03*
%TD*%
%TO.P,K58,1,COL*%
%TO.N,/26*%
X257790000Y-86416800D03*
%TO.P,K58,2,ROW*%
%TO.N,/1*%
X264790000Y-87466800D03*
%TD*%
%TO.P,K52,1,COL*%
%TO.N,/25*%
X229342000Y-67366800D03*
%TO.P,K52,2,ROW*%
%TO.N,/5*%
X236342000Y-68416800D03*
%TD*%
%TO.P,K18,1,COL*%
%TO.N,/18*%
X95992000Y-67366800D03*
%TO.P,K18,2,ROW*%
%TO.N,/5*%
X102992000Y-68416800D03*
%TD*%
%TO.P,K88,1,COL*%
%TO.N,/24*%
X438244000Y-67268400D03*
%TO.P,K88,2,ROW*%
%TO.N,/7*%
X445244000Y-68318400D03*
%TD*%
%TO.P,K51,1,COL*%
%TO.N,/25*%
X221124000Y-29310000D03*
%TO.P,K51,2,ROW*%
%TO.N,/7*%
X214124000Y-28260000D03*
%TD*%
%TO.P,K12,1,COL*%
%TO.N,/30*%
X69322000Y-143566800D03*
%TO.P,K12,2,ROW*%
%TO.N,/14*%
X76322000Y-144616800D03*
%TD*%
%TO.P,K70,1,COL*%
%TO.N,/27*%
X281920000Y-105466800D03*
%TO.P,K70,2,ROW*%
%TO.N,/2*%
X288920000Y-106516800D03*
%TD*%
%TO.P,K2,1,COL*%
%TO.N,/15*%
X34114000Y-67366800D03*
%TO.P,K2,2,ROW*%
%TO.N,/5*%
X41114000Y-68416800D03*
%TD*%
%TO.P,K25,1,COL*%
%TO.N,/18*%
X110216000Y-105466800D03*
%TO.P,K25,2,ROW*%
%TO.N,/2*%
X117216000Y-106516800D03*
%TD*%
%TO.P,K17,1,COL*%
%TO.N,/18*%
X93108000Y-29310000D03*
%TO.P,K17,2,ROW*%
%TO.N,/7*%
X86108000Y-28260000D03*
%TD*%
%TO.P,K49,1,COL*%
%TO.N,/23*%
X205466000Y-105466800D03*
%TO.P,K49,2,ROW*%
%TO.N,/2*%
X212466000Y-106516800D03*
%TD*%
%TO.P,K24,1,COL*%
%TO.N,/19*%
X124440000Y-86416800D03*
%TO.P,K24,2,ROW*%
%TO.N,/1*%
X131440000Y-87466800D03*
%TD*%
%TO.P,K43,1,COL*%
%TO.N,/23*%
X191242000Y-67366800D03*
%TO.P,K43,2,ROW*%
%TO.N,/5*%
X198242000Y-68416800D03*
%TD*%
%TO.P,K47,1,COL*%
%TO.N,/24*%
X210292000Y-67366800D03*
%TO.P,K47,2,ROW*%
%TO.N,/5*%
X217292000Y-68416800D03*
%TD*%
%TO.P,K48,1,COL*%
%TO.N,/24*%
X219690000Y-86416800D03*
%TO.P,K48,2,ROW*%
%TO.N,/1*%
X226690000Y-87466800D03*
%TD*%
%TO.P,K69,1,COL*%
%TO.N,/28*%
X286492000Y-67366800D03*
%TO.P,K69,2,ROW*%
%TO.N,/5*%
X293492000Y-68416800D03*
%TD*%
%TO.P,K85,1,COL*%
%TO.N,/21*%
X419194000Y-86318400D03*
%TO.P,K85,2,ROW*%
%TO.N,/4*%
X426194000Y-87368400D03*
%TD*%
%TO.P,K35,1,COL*%
%TO.N,/21*%
X162540000Y-86416800D03*
%TO.P,K35,2,ROW*%
%TO.N,/1*%
X169540000Y-87466800D03*
%TD*%
%TO.P,K40,1,COL*%
%TO.N,/21*%
X167366000Y-105466800D03*
%TO.P,K40,2,ROW*%
%TO.N,/2*%
X174366000Y-106516800D03*
%TD*%
%TO.P,K37,1,COL*%
%TO.N,/20*%
X157968000Y-124516800D03*
%TO.P,K37,2,ROW*%
%TO.N,/3*%
X164968000Y-125566800D03*
%TD*%
%TO.P,K20,1,COL*%
%TO.N,/17*%
X91166000Y-105466800D03*
%TO.P,K20,2,ROW*%
%TO.N,/2*%
X98166000Y-106516800D03*
%TD*%
%TO.P,K75,1,COL*%
%TO.N,/5*%
X352465200Y-105416000D03*
%TO.P,K75,2,ROW*%
%TO.N,/29*%
X359465200Y-106466000D03*
%TD*%
%TO.P,K67,1,COL*%
%TO.N,/8*%
X288524000Y-143566800D03*
%TO.P,K67,2,ROW*%
%TO.N,/30*%
X295524000Y-144616800D03*
%TD*%
%TO.P,K7,1,COL*%
%TO.N,/16*%
X57892000Y-67366800D03*
%TO.P,K7,2,ROW*%
%TO.N,/5*%
X64892000Y-68416800D03*
%TD*%
%TO.P,K76,1,COL*%
%TO.N,/29*%
X352465200Y-124466000D03*
%TO.P,K76,2,ROW*%
%TO.N,/3*%
X359465200Y-125516000D03*
%TD*%
%TO.P,K5,1,COL*%
%TO.N,/30*%
X36556000Y-124516800D03*
%TO.P,K5,2,ROW*%
%TO.N,/12*%
X43556000Y-125566800D03*
%TD*%
%TO.P,K9,1,COL*%
%TO.N,/15*%
X53066000Y-105466800D03*
%TO.P,K9,2,ROW*%
%TO.N,/2*%
X60066000Y-106516800D03*
%TD*%
%TO.P,K77,1,COL*%
%TO.N,/29*%
X366739200Y-67302000D03*
%TO.P,K77,2,ROW*%
%TO.N,/7*%
X373739200Y-68352000D03*
%TD*%
%TO.P,K31,1,COL*%
%TO.N,/19*%
X138918000Y-124516800D03*
%TO.P,K31,2,ROW*%
%TO.N,/3*%
X145918000Y-125566800D03*
%TD*%
%TO.P,K19,1,COL*%
%TO.N,/18*%
X105390000Y-86416800D03*
%TO.P,K19,2,ROW*%
%TO.N,/1*%
X112390000Y-87466800D03*
%TD*%
%TO.P,K73,1,COL*%
%TO.N,/29*%
X333415200Y-124466000D03*
%TO.P,K73,2,ROW*%
%TO.N,/1*%
X340415200Y-125516000D03*
%TD*%
%TO.P,K86,1,COL*%
%TO.N,/22*%
X419194000Y-105368400D03*
%TO.P,K86,2,ROW*%
%TO.N,/4*%
X426194000Y-106418400D03*
%TD*%
%TO.P,K90,1,COL*%
%TO.N,/18*%
X438244000Y-105368400D03*
%TO.P,K90,2,ROW*%
%TO.N,/4*%
X445244000Y-106418400D03*
%TD*%
%TO.P,K57,1,COL*%
%TO.N,/26*%
X248392000Y-67366800D03*
%TO.P,K57,2,ROW*%
%TO.N,/5*%
X255392000Y-68416800D03*
%TD*%
%TO.P,K59,1,COL*%
%TO.N,/25*%
X243820000Y-105466800D03*
%TO.P,K59,2,ROW*%
%TO.N,/2*%
X250820000Y-106516800D03*
%TD*%
%TO.P,K15,1,COL*%
%TO.N,/16*%
X72116000Y-105466800D03*
%TO.P,K15,2,ROW*%
%TO.N,/2*%
X79116000Y-106516800D03*
%TD*%
%TO.P,K33,1,COL*%
%TO.N,/21*%
X164736000Y-29310000D03*
%TO.P,K33,2,ROW*%
%TO.N,/7*%
X157736000Y-28260000D03*
%TD*%
%TO.P,K29,1,COL*%
%TO.N,/20*%
X143490000Y-86495600D03*
%TO.P,K29,2,ROW*%
%TO.N,/1*%
X150490000Y-87545600D03*
%TD*%
%TO.P,K16,1,COL*%
%TO.N,/16*%
X81768000Y-124516800D03*
%TO.P,K16,2,ROW*%
%TO.N,/3*%
X88768000Y-125566800D03*
%TD*%
%TO.P,K93,1,COL*%
%TO.N,/15*%
X457294000Y-67268400D03*
%TO.P,K93,2,ROW*%
%TO.N,/4*%
X464294000Y-68318400D03*
%TD*%
%TO.P,K54,1,COL*%
%TO.N,/24*%
X224516000Y-105466800D03*
%TO.P,K54,2,ROW*%
%TO.N,/2*%
X231516000Y-106516800D03*
%TD*%
%TO.P,K28,1,COL*%
%TO.N,/20*%
X134092000Y-67366800D03*
%TO.P,K28,2,ROW*%
%TO.N,/5*%
X141092000Y-68416800D03*
%TD*%
%TO.P,K27,1,COL*%
%TO.N,/20*%
X140860000Y-29310000D03*
%TO.P,K27,2,ROW*%
%TO.N,/7*%
X133860000Y-28260000D03*
%TD*%
%TO.P,K11,1,COL*%
%TO.N,/17*%
X69292400Y-29194800D03*
%TO.P,K11,2,ROW*%
%TO.N,/7*%
X62292400Y-28144800D03*
%TD*%
%TO.P,K55,1,COL*%
%TO.N,/24*%
X234162000Y-124538800D03*
%TO.P,K55,2,ROW*%
%TO.N,/3*%
X241162000Y-125588800D03*
%TD*%
%TO.P,K4,1,COL*%
%TO.N,/30*%
X31730000Y-105466800D03*
%TO.P,K4,2,ROW*%
%TO.N,/11*%
X38730000Y-106516800D03*
%TD*%
%TO.P,K92,1,COL*%
%TO.N,/20*%
X438244000Y-143468400D03*
%TO.P,K92,2,ROW*%
%TO.N,/4*%
X445244000Y-144518400D03*
%TD*%
%TO.P,K10,1,COL*%
%TO.N,/15*%
X62718000Y-124516800D03*
%TO.P,K10,2,ROW*%
%TO.N,/3*%
X69718000Y-125566800D03*
%TD*%
%TO.P,K95,1,COL*%
%TO.N,/16*%
X457294000Y-105368400D03*
%TO.P,K95,2,ROW*%
%TO.N,/4*%
X464294000Y-106418400D03*
%TD*%
%TO.P,K65,1,COL*%
%TO.N,/26*%
X262870000Y-105466800D03*
%TO.P,K65,2,ROW*%
%TO.N,/2*%
X269870000Y-106516800D03*
%TD*%
%TO.P,K21,1,COL*%
%TO.N,/17*%
X100818000Y-124516800D03*
%TO.P,K21,2,ROW*%
%TO.N,/3*%
X107818000Y-125566800D03*
%TD*%
%TO.P,K74,1,COL*%
%TO.N,/28*%
X338143200Y-67302000D03*
%TO.P,K74,2,ROW*%
%TO.N,/2*%
X345143200Y-68352000D03*
%TD*%
%TO.P,K39,1,COL*%
%TO.N,/22*%
X181590000Y-86416800D03*
%TO.P,K39,2,ROW*%
%TO.N,/1*%
X188590000Y-87466800D03*
%TD*%
%TO.P,K23,1,COL*%
%TO.N,/19*%
X115042000Y-67366800D03*
%TO.P,K23,2,ROW*%
%TO.N,/5*%
X122042000Y-68416800D03*
%TD*%
%TO.P,K82,1,COL*%
%TO.N,/27*%
X400144000Y-124418400D03*
%TO.P,K82,2,ROW*%
%TO.N,/4*%
X407144000Y-125468400D03*
%TD*%
%TO.P,K87,1,COL*%
%TO.N,/23*%
X419194000Y-124418400D03*
%TO.P,K87,2,ROW*%
%TO.N,/4*%
X426194000Y-125468400D03*
%TD*%
%TO.P,K61,1,COL*%
%TO.N,/30*%
X264648000Y-143566800D03*
%TO.P,K61,2,ROW*%
%TO.N,/10*%
X271648000Y-144616800D03*
%TD*%
%TO.P,K78,1,COL*%
%TO.N,/29*%
X371515200Y-124466000D03*
%TO.P,K78,2,ROW*%
%TO.N,/2*%
X378515200Y-125516000D03*
%TD*%
%TO.P,K80,1,COL*%
%TO.N,/25*%
X400144000Y-86318400D03*
%TO.P,K80,2,ROW*%
%TO.N,/4*%
X407144000Y-87368400D03*
%TD*%
%TO.P,K63,1,COL*%
%TO.N,/27*%
X267442000Y-67366800D03*
%TO.P,K63,2,ROW*%
%TO.N,/5*%
X274442000Y-68416800D03*
%TD*%
%TO.P,K22,1,COL*%
%TO.N,/19*%
X116984000Y-29338000D03*
%TO.P,K22,2,ROW*%
%TO.N,/7*%
X109984000Y-28288000D03*
%TD*%
%TO.P,K38,1,COL*%
%TO.N,/22*%
X172192000Y-67366800D03*
%TO.P,K38,2,ROW*%
%TO.N,/5*%
X179192000Y-68416800D03*
%TD*%
%TO.P,K14,1,COL*%
%TO.N,/17*%
X86340000Y-86416800D03*
%TO.P,K14,2,ROW*%
%TO.N,/1*%
X93340000Y-87466800D03*
%TD*%
%TO.P,K36,1,COL*%
%TO.N,/20*%
X148316000Y-105466800D03*
%TO.P,K36,2,ROW*%
%TO.N,/2*%
X155316000Y-106516800D03*
%TD*%
%TO.P,K42,1,COL*%
%TO.N,/23*%
X197242000Y-29310000D03*
%TO.P,K42,2,ROW*%
%TO.N,/7*%
X190242000Y-28260000D03*
%TD*%
%TO.P,K44,1,COL*%
%TO.N,/23*%
X200640000Y-86416800D03*
%TO.P,K44,2,ROW*%
%TO.N,/1*%
X207640000Y-87466800D03*
%TD*%
%TO.P,K84,1,COL*%
%TO.N,/22*%
X419194000Y-67268400D03*
%TO.P,K84,2,ROW*%
%TO.N,/7*%
X426194000Y-68318400D03*
%TD*%
%TO.P,K94,1,COL*%
%TO.N,/29*%
X457294000Y-86318400D03*
%TO.P,K94,2,ROW*%
%TO.N,/4*%
X464294000Y-87368400D03*
%TD*%
%TO.P,K50,1,COL*%
%TO.N,/23*%
X215122000Y-124518800D03*
%TO.P,K50,2,ROW*%
%TO.N,/3*%
X222122000Y-125568800D03*
%TD*%
%TO.P,K46,1,COL*%
%TO.N,/22*%
X196068000Y-124516800D03*
%TO.P,K46,2,ROW*%
%TO.N,/3*%
X203068000Y-125566800D03*
%TD*%
%TO.P,K89,1,COL*%
%TO.N,/17*%
X438244000Y-86318400D03*
%TO.P,K89,2,ROW*%
%TO.N,/4*%
X445244000Y-87368400D03*
%TD*%
%TO.P,K62,1,COL*%
%TO.N,/27*%
X268876000Y-29310000D03*
%TO.P,K62,2,ROW*%
%TO.N,/7*%
X261876000Y-28260000D03*
%TD*%
%TO.P,K45,1,COL*%
%TO.N,/22*%
X186416000Y-105466800D03*
%TO.P,K45,2,ROW*%
%TO.N,/2*%
X193416000Y-106516800D03*
%TD*%
%TO.P,K91,1,COL*%
%TO.N,/19*%
X438244000Y-124418400D03*
%TO.P,K91,2,ROW*%
%TO.N,/4*%
X445244000Y-125468400D03*
%TD*%
%TO.P,K30,1,COL*%
%TO.N,/19*%
X129266000Y-105466800D03*
%TO.P,K30,2,ROW*%
%TO.N,/2*%
X136266000Y-106516800D03*
%TD*%
%TO.P,K6,1,COL*%
%TO.N,/30*%
X45446000Y-143566800D03*
%TO.P,K6,2,ROW*%
%TO.N,/13*%
X52446000Y-144616800D03*
%TD*%
%TO.P,K79,1,COL*%
%TO.N,/16*%
X400144000Y-67268400D03*
%TO.P,K79,2,ROW*%
%TO.N,/7*%
X407144000Y-68318400D03*
%TD*%
%TO.P,K1,1,COL*%
%TO.N,/15*%
X38244000Y-29408000D03*
%TO.P,K1,2,ROW*%
%TO.N,/7*%
X31244000Y-28358000D03*
%TD*%
%TO.P,K72,1,COL*%
%TO.N,/28*%
X305542000Y-67366800D03*
%TO.P,K72,2,ROW*%
%TO.N,/3*%
X312542000Y-68416800D03*
%TD*%
D12*
%TO.P,J1,1,Pin_1*%
%TO.N,/1*%
X157000000Y-47500000D03*
%TO.P,J1,2,Pin_2*%
%TO.N,/2*%
X158250000Y-50000000D03*
%TO.P,J1,3,Pin_3*%
%TO.N,/3*%
X159500000Y-47500000D03*
%TO.P,J1,4,Pin_4*%
%TO.N,/4*%
X160750000Y-50000000D03*
%TO.P,J1,5,Pin_5*%
%TO.N,/5*%
X162000000Y-47500000D03*
%TO.P,J1,6,Pin_6*%
%TO.N,/6*%
X163250000Y-50000000D03*
%TO.P,J1,7,Pin_7*%
%TO.N,/7*%
X164500000Y-47500000D03*
%TO.P,J1,8,Pin_8*%
%TO.N,/8*%
X165750000Y-50000000D03*
%TO.P,J1,9,Pin_9*%
%TO.N,Net-(D1-A)*%
X167000000Y-47500000D03*
%TO.P,J1,10,Pin_10*%
%TO.N,/10*%
X168250000Y-50000000D03*
%TO.P,J1,11,Pin_11*%
%TO.N,/11*%
X169500000Y-47500000D03*
%TO.P,J1,12,Pin_12*%
%TO.N,/12*%
X170750000Y-50000000D03*
%TO.P,J1,13,Pin_13*%
%TO.N,/13*%
X172000000Y-47500000D03*
%TO.P,J1,14,Pin_14*%
%TO.N,/14*%
X173250000Y-50000000D03*
%TO.P,J1,15,Pin_15*%
%TO.N,/15*%
X174500000Y-47500000D03*
%TO.P,J1,16,Pin_16*%
%TO.N,/16*%
X175750000Y-50000000D03*
%TO.P,J1,17,Pin_17*%
%TO.N,/17*%
X177000000Y-47500000D03*
%TO.P,J1,18,Pin_18*%
%TO.N,/18*%
X178250000Y-50000000D03*
%TO.P,J1,19,Pin_19*%
%TO.N,/19*%
X179500000Y-47500000D03*
%TO.P,J1,20,Pin_20*%
%TO.N,/20*%
X180750000Y-50000000D03*
%TO.P,J1,21,Pin_21*%
%TO.N,/21*%
X182000000Y-47500000D03*
%TO.P,J1,22,Pin_22*%
%TO.N,/22*%
X183250000Y-50000000D03*
%TO.P,J1,23,Pin_23*%
%TO.N,/23*%
X184500000Y-47500000D03*
%TO.P,J1,24,Pin_24*%
%TO.N,/24*%
X185750000Y-50000000D03*
%TO.P,J1,25,Pin_25*%
%TO.N,/25*%
X187000000Y-47500000D03*
%TO.P,J1,26,Pin_26*%
%TO.N,/26*%
X188250000Y-50000000D03*
%TO.P,J1,27,Pin_27*%
%TO.N,/27*%
X189500000Y-47500000D03*
%TO.P,J1,28,Pin_28*%
%TO.N,/28*%
X190750000Y-50000000D03*
%TO.P,J1,29,Pin_29*%
%TO.N,/29*%
X192000000Y-47500000D03*
%TO.P,J1,30,Pin_30*%
%TO.N,/30*%
X193250000Y-50000000D03*
%TO.P,J1,31,Pin_31*%
%TO.N,Net-(D1-K)*%
X194500000Y-47500000D03*
%TO.P,J1,32,Pin_32*%
%TO.N,unconnected-(J1-Pin_32-Pad32)*%
X195750000Y-50000000D03*
%TD*%
D13*
%TO.N,Net-(D1-A)*%
X51000000Y-43000000D03*
%TO.N,Net-(D1-K)*%
X57000000Y-42000000D03*
%TO.N,/5*%
X293000000Y-100000000D03*
%TO.N,/3*%
X320000000Y-127000000D03*
%TO.N,/6*%
X287000000Y-134000000D03*
%TO.N,/1*%
X318000000Y-86000000D03*
%TO.N,/7*%
X284000000Y-71000000D03*
%TO.N,/15*%
X175000000Y-73000000D03*
%TO.N,/1*%
X341000000Y-86000000D03*
%TO.N,/30*%
X296000000Y-49000000D03*
%TO.N,/11*%
X29000000Y-46000000D03*
%TO.N,/12*%
X30000000Y-47000000D03*
%TO.N,/13*%
X31000000Y-45000000D03*
%TO.N,/16*%
X394000000Y-67000000D03*
X58000000Y-49000000D03*
X394000000Y-90000000D03*
X68000000Y-90000000D03*
%TO.N,/2*%
X292000000Y-110000000D03*
X345000000Y-111000000D03*
%TO.N,/3*%
X261000000Y-116000000D03*
%TO.N,/17*%
X182000000Y-74000000D03*
X77000000Y-74000000D03*
%TO.N,/14*%
X32000000Y-48000000D03*
%TO.N,/18*%
X93000000Y-50000000D03*
X106000000Y-91000000D03*
%TO.N,/19*%
X125000000Y-97000000D03*
X117000000Y-44000000D03*
%TO.N,/20*%
X141000000Y-51000000D03*
X149000000Y-116000000D03*
%TO.N,/27*%
X268000000Y-47000000D03*
X285000000Y-110000000D03*
X285000000Y-141000000D03*
%TO.N,/21*%
X183000000Y-75000000D03*
X182000000Y-30000000D03*
X159000000Y-75000000D03*
%TO.N,/22*%
X182000000Y-92000000D03*
X183000000Y-66000000D03*
%TO.N,/23*%
X206000000Y-109000000D03*
X185000000Y-31000000D03*
%TO.N,/24*%
X211000000Y-58000000D03*
X211000000Y-52000000D03*
X450000000Y-66000000D03*
%TO.N,/25*%
X187000000Y-38000000D03*
X230000000Y-77000000D03*
%TO.N,/26*%
X258000000Y-96000000D03*
X245000000Y-51000000D03*
%TO.N,/10*%
X265000000Y-140000000D03*
X193000000Y-139000000D03*
%TO.N,/6*%
X180000000Y-137000000D03*
%TO.N,/8*%
X181000000Y-138000000D03*
X288000000Y-135000000D03*
%TO.N,/28*%
X395000000Y-66000000D03*
X293000000Y-50000000D03*
X395000000Y-129000000D03*
%TO.N,/29*%
X294000000Y-48000000D03*
X367000000Y-73000000D03*
X296000000Y-71000000D03*
%TO.N,/4*%
X160000000Y-84000000D03*
X160000000Y-76000000D03*
D14*
%TO.N,Net-(D1-K)*%
X58000000Y-94000000D03*
X194000000Y-42000000D03*
%TO.N,Net-(D1-A)*%
X167000000Y-43000000D03*
X51000000Y-94000000D03*
%TD*%
D15*
%TO.N,/2*%
X345143200Y-68352000D02*
X345143200Y-110856800D01*
X345143200Y-110856800D02*
X345000000Y-111000000D01*
%TO.N,/3*%
X312542000Y-68416800D02*
X312542000Y-71542000D01*
X312542000Y-71542000D02*
X314000000Y-73000000D01*
X314000000Y-73000000D02*
X318000000Y-73000000D01*
X320000000Y-75000000D02*
X320000000Y-127000000D01*
X318000000Y-73000000D02*
X320000000Y-75000000D01*
%TO.N,/6*%
X287000000Y-134000000D02*
X289032000Y-131968000D01*
X289032000Y-131968000D02*
X289032000Y-124516800D01*
%TO.N,/1*%
X312331000Y-95793800D02*
X318000000Y-90124800D01*
X318000000Y-90124800D02*
X318000000Y-86000000D01*
X341090200Y-86090200D02*
X341090200Y-124841000D01*
X341000000Y-86000000D02*
X341090200Y-86090200D01*
X341090200Y-124841000D02*
X340415200Y-125516000D01*
%TO.N,/28*%
X305542000Y-67366800D02*
X312175200Y-74000000D01*
X312175200Y-74000000D02*
X317000000Y-74000000D01*
X317000000Y-74000000D02*
X319000000Y-76000000D01*
X319000000Y-76000000D02*
X319000000Y-83174800D01*
X319000000Y-83174800D02*
X313381000Y-88793800D01*
%TO.N,Net-(D1-A)*%
X51000000Y-94000000D02*
X51000000Y-43000000D01*
%TO.N,Net-(D1-K)*%
X58000000Y-94000000D02*
X60000000Y-92000000D01*
X60000000Y-92000000D02*
X60000000Y-73000000D01*
X60000000Y-73000000D02*
X55000000Y-68000000D01*
X55000000Y-68000000D02*
X55000000Y-44000000D01*
X55000000Y-44000000D02*
X57000000Y-42000000D01*
%TO.N,/11*%
X38730000Y-106516800D02*
X39405000Y-105841800D01*
X39405000Y-105841800D02*
X39405000Y-99405000D01*
X39405000Y-99405000D02*
X33000000Y-93000000D01*
X33000000Y-93000000D02*
X28000000Y-93000000D01*
X28000000Y-93000000D02*
X27000000Y-92000000D01*
X27000000Y-71000000D02*
X29000000Y-69000000D01*
X27000000Y-92000000D02*
X27000000Y-71000000D01*
X29000000Y-69000000D02*
X29000000Y-46000000D01*
%TO.N,/28*%
X395000000Y-66000000D02*
X395000000Y-129000000D01*
%TO.N,/4*%
X411468400Y-125468400D02*
X418000000Y-132000000D01*
X407144000Y-125468400D02*
X411468400Y-125468400D01*
X418000000Y-132000000D02*
X418000000Y-143314400D01*
X418000000Y-143314400D02*
X416796000Y-144518400D01*
X464294000Y-106418400D02*
X459712400Y-111000000D01*
X459712400Y-111000000D02*
X453000000Y-111000000D01*
X452000000Y-124000000D02*
X464773600Y-124000000D01*
X453000000Y-111000000D02*
X451000000Y-113000000D01*
X451000000Y-113000000D02*
X451000000Y-123000000D01*
X451000000Y-123000000D02*
X452000000Y-124000000D01*
X464773600Y-124000000D02*
X467444000Y-126670400D01*
%TO.N,/24*%
X450000000Y-66000000D02*
X450000000Y-127000000D01*
X450000000Y-127000000D02*
X457000000Y-134000000D01*
X457000000Y-134000000D02*
X466064400Y-134000000D01*
X466064400Y-134000000D02*
X466394000Y-133670400D01*
%TO.N,/7*%
X164500000Y-33500000D02*
X159260000Y-28260000D01*
X284000000Y-30012000D02*
X285752000Y-28260000D01*
X284000000Y-71000000D02*
X284000000Y-30012000D01*
X159260000Y-28260000D02*
X157736000Y-28260000D01*
X164500000Y-47500000D02*
X164500000Y-33500000D01*
%TO.N,/15*%
X38244000Y-34339549D02*
X34114000Y-38469549D01*
X174500000Y-47500000D02*
X174500000Y-60127251D01*
X175000000Y-67770636D02*
X175000000Y-73000000D01*
X38842000Y-91242800D02*
X53066000Y-105466800D01*
X173317000Y-61310251D02*
X173317000Y-66087636D01*
X53066000Y-114864800D02*
X62718000Y-124516800D01*
X38842000Y-86416800D02*
X38842000Y-91242800D01*
X53066000Y-105466800D02*
X53066000Y-114864800D01*
X34114000Y-67366800D02*
X38842000Y-72094800D01*
X34114000Y-38469549D02*
X34114000Y-67366800D01*
X38244000Y-29408000D02*
X38244000Y-34339549D01*
X38842000Y-72094800D02*
X38842000Y-86416800D01*
X173317000Y-66087636D02*
X175000000Y-67770636D01*
X174500000Y-60127251D02*
X173317000Y-61310251D01*
%TO.N,/5*%
X293492000Y-99508000D02*
X293000000Y-100000000D01*
X293492000Y-68416800D02*
X293492000Y-99508000D01*
X162000000Y-47500000D02*
X162000000Y-66558800D01*
X162000000Y-66558800D02*
X160142000Y-68416800D01*
%TO.N,/1*%
X157000000Y-47500000D02*
X149000000Y-55500000D01*
X149000000Y-55500000D02*
X149000000Y-71000000D01*
X152000000Y-86035600D02*
X150490000Y-87545600D01*
X149000000Y-71000000D02*
X152000000Y-74000000D01*
X152000000Y-74000000D02*
X152000000Y-86035600D01*
%TO.N,/30*%
X36556000Y-124516800D02*
X36556000Y-134676800D01*
X296000000Y-49000000D02*
X297281999Y-50281999D01*
X297281999Y-50281999D02*
X297281999Y-124316801D01*
X297281999Y-126816799D02*
X297281999Y-142858801D01*
X297281999Y-124316801D02*
X296032000Y-125566800D01*
X296032000Y-125566800D02*
X297281999Y-126816799D01*
X36556000Y-134676800D02*
X45446000Y-143566800D01*
X297281999Y-142858801D02*
X295524000Y-144616800D01*
X31730000Y-105466800D02*
X31730000Y-119690800D01*
X31730000Y-119690800D02*
X36556000Y-124516800D01*
%TO.N,/12*%
X44231000Y-102231000D02*
X44231000Y-124891800D01*
X36000000Y-94000000D02*
X44231000Y-102231000D01*
X44231000Y-124891800D02*
X43556000Y-125566800D01*
X35000000Y-73000000D02*
X35000000Y-90000000D01*
X36000000Y-91000000D02*
X36000000Y-94000000D01*
X30000000Y-47000000D02*
X30000000Y-68000000D01*
X30000000Y-68000000D02*
X35000000Y-73000000D01*
X35000000Y-90000000D02*
X36000000Y-91000000D01*
%TO.N,/13*%
X36000000Y-89000000D02*
X37000000Y-90000000D01*
X49000000Y-105000000D02*
X49000000Y-107000000D01*
X36000000Y-73000000D02*
X36000000Y-89000000D01*
X31000000Y-45000000D02*
X31000000Y-68000000D01*
X37000000Y-90000000D02*
X37000000Y-93000000D01*
X54000000Y-143062800D02*
X52446000Y-144616800D01*
X49000000Y-107000000D02*
X51000000Y-109000000D01*
X54000000Y-136000000D02*
X54000000Y-143062800D01*
X51000000Y-133000000D02*
X54000000Y-136000000D01*
X31000000Y-68000000D02*
X36000000Y-73000000D01*
X51000000Y-109000000D02*
X51000000Y-133000000D01*
X37000000Y-93000000D02*
X49000000Y-105000000D01*
%TO.N,/16*%
X394000000Y-67000000D02*
X394000000Y-90000000D01*
X57892000Y-67366800D02*
X67290000Y-76764800D01*
X72116000Y-105466800D02*
X72116000Y-114864800D01*
X68000000Y-90000000D02*
X72116000Y-94116000D01*
X58000000Y-49000000D02*
X57892000Y-49108000D01*
X72116000Y-114864800D02*
X81768000Y-124516800D01*
X67290000Y-89290000D02*
X68000000Y-90000000D01*
X72116000Y-94116000D02*
X72116000Y-105466800D01*
X67290000Y-76764800D02*
X67290000Y-86416800D01*
X67290000Y-86416800D02*
X67290000Y-89290000D01*
X57892000Y-49108000D02*
X57892000Y-67366800D01*
%TO.N,/2*%
X292000000Y-109596800D02*
X288920000Y-106516800D01*
X158000000Y-76000000D02*
X158000000Y-103832800D01*
X151000000Y-57250000D02*
X151000000Y-69000000D01*
X158000000Y-103832800D02*
X155316000Y-106516800D01*
X158250000Y-50000000D02*
X151000000Y-57250000D01*
X151000000Y-69000000D02*
X158000000Y-76000000D01*
X292000000Y-110000000D02*
X292000000Y-109596800D01*
%TO.N,/3*%
X157288000Y-48712000D02*
X150000000Y-56000000D01*
X150000000Y-56000000D02*
X150000000Y-70000000D01*
X157000000Y-102000000D02*
X153000000Y-106000000D01*
X164968000Y-125566800D02*
X175000000Y-135598800D01*
X157000000Y-77000000D02*
X157000000Y-102000000D01*
X175000000Y-135598800D02*
X175000000Y-143474800D01*
X163486451Y-125566800D02*
X164968000Y-125566800D01*
X158288000Y-48712000D02*
X157288000Y-48712000D01*
X153000000Y-115080349D02*
X163486451Y-125566800D01*
X159500000Y-47500000D02*
X159964027Y-47500000D01*
X153000000Y-106000000D02*
X153000000Y-115080349D01*
X159500000Y-47500000D02*
X158288000Y-48712000D01*
X261000000Y-116000000D02*
X260893000Y-116107000D01*
X260893000Y-124891800D02*
X260218000Y-125566800D01*
X175000000Y-143474800D02*
X173858000Y-144616800D01*
X150000000Y-70000000D02*
X157000000Y-77000000D01*
X260893000Y-116107000D02*
X260893000Y-124891800D01*
%TO.N,/17*%
X76942000Y-77018800D02*
X86340000Y-86416800D01*
X76942000Y-67366800D02*
X76942000Y-77018800D01*
X177000000Y-58000000D02*
X177000000Y-47500000D01*
X182000000Y-68000000D02*
X180000000Y-66000000D01*
X86340000Y-86416800D02*
X86340000Y-100640800D01*
X86340000Y-100640800D02*
X91166000Y-105466800D01*
X69292400Y-29194800D02*
X69292400Y-59717200D01*
X69292400Y-59717200D02*
X76942000Y-67366800D01*
X91166000Y-105466800D02*
X91166000Y-114864800D01*
X180000000Y-61000000D02*
X177000000Y-58000000D01*
X180000000Y-66000000D02*
X180000000Y-61000000D01*
X182000000Y-74000000D02*
X182000000Y-68000000D01*
X91166000Y-114864800D02*
X100818000Y-124516800D01*
%TO.N,/14*%
X52000000Y-122062566D02*
X74554234Y-144616800D01*
X38000000Y-89000000D02*
X38000000Y-92000000D01*
X50000000Y-104000000D02*
X50000000Y-106000000D01*
X32000000Y-68000000D02*
X37000000Y-73000000D01*
X37000000Y-73000000D02*
X37000000Y-88000000D01*
X38000000Y-92000000D02*
X50000000Y-104000000D01*
X52000000Y-108000000D02*
X52000000Y-122062566D01*
X74554234Y-144616800D02*
X76322000Y-144616800D01*
X32000000Y-48000000D02*
X32000000Y-68000000D01*
X50000000Y-106000000D02*
X52000000Y-108000000D01*
X37000000Y-88000000D02*
X38000000Y-89000000D01*
%TO.N,/18*%
X110216000Y-95216000D02*
X110216000Y-105466800D01*
X93108000Y-64482800D02*
X95992000Y-67366800D01*
X110216000Y-114864800D02*
X119868000Y-124516800D01*
X105390000Y-90390000D02*
X106000000Y-91000000D01*
X95992000Y-77018800D02*
X105390000Y-86416800D01*
X93108000Y-29310000D02*
X93108000Y-64482800D01*
X95992000Y-67366800D02*
X95992000Y-77018800D01*
X106000000Y-91000000D02*
X110216000Y-95216000D01*
X110216000Y-105466800D02*
X110216000Y-114864800D01*
X105390000Y-86416800D02*
X105390000Y-90390000D01*
%TO.N,/19*%
X124440000Y-86416800D02*
X124440000Y-96440000D01*
X129266000Y-114864800D02*
X138918000Y-124516800D01*
X115042000Y-62435251D02*
X115042000Y-67366800D01*
X115042000Y-77018800D02*
X124440000Y-86416800D01*
X124440000Y-96440000D02*
X125000000Y-97000000D01*
X129266000Y-105466800D02*
X129266000Y-114864800D01*
X125000000Y-97000000D02*
X129266000Y-101266000D01*
X115042000Y-67366800D02*
X115042000Y-77018800D01*
X116984000Y-29338000D02*
X116984000Y-60493251D01*
X116984000Y-60493251D02*
X115042000Y-62435251D01*
X129266000Y-101266000D02*
X129266000Y-105466800D01*
%TO.N,/20*%
X140860000Y-29310000D02*
X140860000Y-55667251D01*
X157516800Y-124516800D02*
X157968000Y-124516800D01*
X149000000Y-116000000D02*
X157516800Y-124516800D01*
X140860000Y-55667251D02*
X134092000Y-62435251D01*
X134092000Y-62435251D02*
X134092000Y-67366800D01*
X134092000Y-67366800D02*
X134092000Y-77097600D01*
X143490000Y-86495600D02*
X143490000Y-100640800D01*
X148316000Y-115316000D02*
X149000000Y-116000000D01*
X134092000Y-77097600D02*
X143490000Y-86495600D01*
X148316000Y-105466800D02*
X148316000Y-115316000D01*
X143490000Y-100640800D02*
X148316000Y-105466800D01*
%TO.N,/27*%
X285000000Y-141000000D02*
X285000000Y-108546800D01*
X268000000Y-48000000D02*
X267442000Y-48558000D01*
X276840000Y-86416800D02*
X276840000Y-100386800D01*
X285000000Y-108546800D02*
X281920000Y-105466800D01*
X267442000Y-77018800D02*
X276840000Y-86416800D01*
X268876000Y-29310000D02*
X268876000Y-46124000D01*
X268000000Y-47000000D02*
X268000000Y-48000000D01*
X268876000Y-46124000D02*
X268000000Y-47000000D01*
X276840000Y-100386800D02*
X281920000Y-105466800D01*
X267442000Y-48558000D02*
X267442000Y-67366800D01*
X267442000Y-67366800D02*
X267442000Y-77018800D01*
%TO.N,/21*%
X182000000Y-67151472D02*
X183000000Y-68151472D01*
X182000000Y-47500000D02*
X182000000Y-30000000D01*
X153142000Y-69142000D02*
X159000000Y-75000000D01*
X182000000Y-47500000D02*
X182000000Y-67151472D01*
X183000000Y-68151472D02*
X183000000Y-75000000D01*
X162540000Y-86416800D02*
X162540000Y-100640800D01*
X161073297Y-86416800D02*
X162540000Y-86416800D01*
X167366000Y-114864800D02*
X177018000Y-124516800D01*
X162540000Y-100640800D02*
X167366000Y-105466800D01*
X159000000Y-75000000D02*
X159000000Y-84343503D01*
X167366000Y-105466800D02*
X167366000Y-114864800D01*
X153142000Y-67366800D02*
X153142000Y-69142000D01*
X159000000Y-84343503D02*
X161073297Y-86416800D01*
%TO.N,/22*%
X181590000Y-86416800D02*
X181590000Y-91590000D01*
X183250000Y-50000000D02*
X183250000Y-65750000D01*
X181590000Y-91590000D02*
X182000000Y-92000000D01*
X172192000Y-77018800D02*
X181590000Y-86416800D01*
X183250000Y-65750000D02*
X183000000Y-66000000D01*
X186416000Y-114864800D02*
X196068000Y-124516800D01*
X417494000Y-68968400D02*
X417494000Y-103668400D01*
X417494000Y-103668400D02*
X419194000Y-105368400D01*
X186416000Y-105466800D02*
X186416000Y-114864800D01*
X186416000Y-96416000D02*
X186416000Y-105466800D01*
X419194000Y-67268400D02*
X417494000Y-68968400D01*
X172192000Y-67366800D02*
X172192000Y-77018800D01*
X182000000Y-92000000D02*
X186416000Y-96416000D01*
%TO.N,/23*%
X184500000Y-60624800D02*
X191242000Y-67366800D01*
X184500000Y-47500000D02*
X184500000Y-31500000D01*
X206000000Y-110000000D02*
X215122000Y-119122000D01*
X200640000Y-86416800D02*
X200640000Y-100640800D01*
X184500000Y-47500000D02*
X184500000Y-60624800D01*
X191242000Y-67366800D02*
X191242000Y-77018800D01*
X205466000Y-105466800D02*
X205466000Y-108466000D01*
X191242000Y-77018800D02*
X200640000Y-86416800D01*
X205466000Y-108466000D02*
X206000000Y-109000000D01*
X206000000Y-109000000D02*
X206000000Y-110000000D01*
X200640000Y-100640800D02*
X205466000Y-105466800D01*
X184500000Y-31500000D02*
X185000000Y-31000000D01*
X215122000Y-119122000D02*
X215122000Y-124518800D01*
%TO.N,/24*%
X210292000Y-67366800D02*
X210292000Y-77018800D01*
X211000000Y-66658800D02*
X210292000Y-67366800D01*
X224516000Y-114892800D02*
X234162000Y-124538800D01*
X219690000Y-86416800D02*
X219690000Y-100640800D01*
X211000000Y-52000000D02*
X211000000Y-58000000D01*
X211000000Y-58000000D02*
X211000000Y-66658800D01*
X210292000Y-77018800D02*
X219690000Y-86416800D01*
X219690000Y-100640800D02*
X224516000Y-105466800D01*
X224516000Y-105466800D02*
X224516000Y-114892800D01*
%TO.N,/25*%
X230000000Y-77000000D02*
X230000000Y-77676800D01*
X243820000Y-105466800D02*
X243820000Y-115118800D01*
X187000000Y-47500000D02*
X187000000Y-38000000D01*
X221124000Y-29310000D02*
X221124000Y-59148800D01*
X230000000Y-77676800D02*
X238740000Y-86416800D01*
X238740000Y-86416800D02*
X238740000Y-100386800D01*
X238740000Y-100386800D02*
X243820000Y-105466800D01*
X229342000Y-76342000D02*
X230000000Y-77000000D01*
X221124000Y-59148800D02*
X229342000Y-67366800D01*
X243820000Y-115118800D02*
X253218000Y-124516800D01*
X229342000Y-67366800D02*
X229342000Y-76342000D01*
%TO.N,/26*%
X245000000Y-63974800D02*
X248392000Y-67366800D01*
X245000000Y-29310000D02*
X245000000Y-63974800D01*
X248392000Y-77018800D02*
X257790000Y-86416800D01*
X257790000Y-95790000D02*
X258000000Y-96000000D01*
X248392000Y-67366800D02*
X248392000Y-77018800D01*
X257790000Y-86416800D02*
X257790000Y-95790000D01*
X258000000Y-97000000D02*
X262870000Y-101870000D01*
X258000000Y-96000000D02*
X258000000Y-97000000D01*
X262870000Y-101870000D02*
X262870000Y-105466800D01*
%TO.N,/10*%
X185000000Y-108000000D02*
X184000000Y-107000000D01*
X170000000Y-61000000D02*
X168250000Y-59250000D01*
X193000000Y-123000000D02*
X185000000Y-115000000D01*
X269616800Y-144616800D02*
X271648000Y-144616800D01*
X185000000Y-115000000D02*
X185000000Y-108000000D01*
X179000000Y-85000000D02*
X171000000Y-77000000D01*
X171000000Y-77000000D02*
X171000000Y-70000000D01*
X168250000Y-59250000D02*
X168250000Y-50000000D01*
X170000000Y-69000000D02*
X170000000Y-61000000D01*
X265000000Y-140000000D02*
X269616800Y-144616800D01*
X179000000Y-91000000D02*
X179000000Y-85000000D01*
X184000000Y-107000000D02*
X184000000Y-96000000D01*
X184000000Y-96000000D02*
X179000000Y-91000000D01*
X171000000Y-70000000D02*
X170000000Y-69000000D01*
X193000000Y-139000000D02*
X193000000Y-123000000D01*
%TO.N,/6*%
X171000000Y-115000000D02*
X171000000Y-106000000D01*
X166000000Y-87472636D02*
X163250000Y-84722636D01*
X180000000Y-137000000D02*
X180000000Y-124000000D01*
X171000000Y-106000000D02*
X166000000Y-101000000D01*
X180000000Y-124000000D02*
X171000000Y-115000000D01*
X163250000Y-84722636D02*
X163250000Y-50000000D01*
X166000000Y-101000000D02*
X166000000Y-87472636D01*
%TO.N,/8*%
X167000000Y-87602636D02*
X170215000Y-84387636D01*
X181000000Y-124030349D02*
X178000000Y-121030349D01*
X172000000Y-115000000D02*
X172000000Y-105632349D01*
X288524000Y-135524000D02*
X288000000Y-135000000D01*
X172000000Y-105632349D02*
X167000000Y-100632349D01*
X181000000Y-138000000D02*
X181000000Y-124030349D01*
X165750000Y-74750000D02*
X165750000Y-50000000D01*
X167000000Y-100632349D02*
X167000000Y-87602636D01*
X178000000Y-121030349D02*
X178000000Y-121000000D01*
X170215000Y-84387636D02*
X170215000Y-79215000D01*
X288524000Y-143566800D02*
X288524000Y-135524000D01*
X178000000Y-121000000D02*
X172000000Y-115000000D01*
X170215000Y-79215000D02*
X165750000Y-74750000D01*
%TO.N,/28*%
X292752000Y-49752000D02*
X293000000Y-50000000D01*
X286492000Y-56508000D02*
X286492000Y-67366800D01*
X293000000Y-50000000D02*
X286492000Y-56508000D01*
X292752000Y-29310000D02*
X292752000Y-49752000D01*
%TO.N,/29*%
X367000000Y-98931200D02*
X359465200Y-106466000D01*
X359465200Y-106466000D02*
X352465200Y-113466000D01*
X352465200Y-113466000D02*
X352465200Y-124466000D01*
X366739200Y-72739200D02*
X367000000Y-73000000D01*
X294000000Y-48000000D02*
X294000000Y-50000000D01*
X366739200Y-67302000D02*
X366739200Y-72739200D01*
X367000000Y-73000000D02*
X367000000Y-98931200D01*
X294000000Y-50000000D02*
X296000000Y-52000000D01*
X296000000Y-52000000D02*
X296000000Y-71000000D01*
%TO.N,/4*%
X465543999Y-69568399D02*
X465543999Y-86118401D01*
X446493999Y-124218401D02*
X445244000Y-125468400D01*
X160000000Y-72000000D02*
X160000000Y-73000000D01*
X445244000Y-125468400D02*
X446493999Y-126718399D01*
X465543999Y-105168401D02*
X464294000Y-106418400D01*
X445244000Y-106418400D02*
X446493999Y-107668399D01*
X446493999Y-107668399D02*
X446493999Y-124218401D01*
X464294000Y-87368400D02*
X465543999Y-88618399D01*
X160000000Y-73000000D02*
X160000000Y-84000000D01*
X446493999Y-88618399D02*
X445244000Y-87368400D01*
X465543999Y-86118401D02*
X464294000Y-87368400D01*
X446493999Y-143268401D02*
X445244000Y-144518400D01*
X160817000Y-50067000D02*
X160817000Y-64183000D01*
X445244000Y-106418400D02*
X446493999Y-105168401D01*
X464294000Y-68318400D02*
X465543999Y-69568399D01*
X158000000Y-67000000D02*
X158000000Y-70000000D01*
X446493999Y-105168401D02*
X446493999Y-88618399D01*
X160750000Y-50000000D02*
X160817000Y-50067000D01*
X446493999Y-126718399D02*
X446493999Y-143268401D01*
X160817000Y-64183000D02*
X158000000Y-67000000D01*
X158000000Y-70000000D02*
X160000000Y-72000000D01*
X465543999Y-88618399D02*
X465543999Y-105168401D01*
%TO.N,Net-(D1-K)*%
X194500000Y-47500000D02*
X194500000Y-42500000D01*
X194500000Y-42500000D02*
X194000000Y-42000000D01*
%TO.N,Net-(D1-A)*%
X167000000Y-47500000D02*
X167000000Y-43000000D01*
%TD*%
M02*
