M48
; DRILL file {KiCad 8.0.1} date 2024-06-20T10:56:05+1000
; FORMAT={-:-/ absolute / metric / decimal}
; #@! TF.CreationDate,2024-06-20T10:56:05+10:00
; #@! TF.GenerationSoftware,Kicad,Pcbnew,8.0.1
; #@! TF.FileFunction,NonPlated,1,2,NPTH
FMAT,2
METRIC
; #@! TA.AperFunction,NonPlated,NPTH,ComponentDrill
T1C3.048
; #@! TA.AperFunction,NonPlated,NPTH,ComponentDrill
T2C3.200
; #@! TA.AperFunction,NonPlated,NPTH,ComponentDrill
T3C3.988
; #@! TA.AperFunction,NonPlated,NPTH,ComponentDrill
T4C5.100
; #@! TA.AperFunction,NonPlated,NPTH,ComponentDrill
T5C5.250
%
G90
G05
T1
X31.336Y-74.732
X55.148Y-74.732
X104.583Y-146.176
X114.108Y-146.176
X121.258Y-146.176
X221.258Y-146.176
X228.408Y-146.176
X237.933Y-146.176
X281.526Y-112.832
X300.671Y-79.431
X300.671Y-103.307
X305.338Y-112.832
X402.29Y-145.753
X426.102Y-145.753
X468.679Y-117.364
X468.679Y-141.177
T2
X26.0Y-45.0
X26.0Y-65.0
X26.0Y-100.0
X26.0Y-132.0
X60.0Y-138.0
X67.0Y-101.0
X77.0Y-38.0
X89.758Y-133.867
X89.758Y-143.867
X99.758Y-133.867
X109.258Y-133.867
X119.0Y-85.0
X147.0Y-133.0
X149.0Y-38.0
X181.0Y-102.0
X205.0Y-63.0
X208.0Y-133.0
X233.258Y-133.867
X242.758Y-133.867
X252.758Y-133.867
X252.758Y-143.867
X253.0Y-44.0
X258.0Y-102.0
X312.0Y-134.0
X325.0Y-63.0
X389.0Y-134.0
X390.0Y-55.0
X452.0Y-58.0
X461.0Y-112.0
X469.0Y-72.0
X469.0Y-111.0
X469.0Y-146.0
T3
X31.336Y-89.972
X55.148Y-89.972
X104.583Y-130.936
X114.108Y-130.936
X121.258Y-130.936
X171.258Y-138.867
X221.258Y-130.936
X228.408Y-130.936
X237.933Y-130.936
X281.526Y-128.072
X305.338Y-128.072
X315.911Y-79.431
X315.911Y-103.307
X402.29Y-130.513
X426.102Y-130.513
X453.439Y-117.364
X453.439Y-141.177
T4
X171.258Y-138.867
T5
X33.844Y-34.108
X36.13Y-100.767
X38.514Y-62.667
X40.956Y-119.817
X43.242Y-81.717
X49.846Y-138.867
X57.466Y-100.767
X62.292Y-62.667
X64.892Y-33.895
X67.118Y-119.817
X71.69Y-81.717
X73.722Y-138.867
X76.516Y-100.767
X81.342Y-62.667
X86.168Y-119.817
X88.708Y-34.01
X90.74Y-81.717
X95.566Y-100.767
X100.392Y-62.667
X105.218Y-119.817
X109.79Y-81.717
X112.584Y-34.038
X114.616Y-100.767
X119.442Y-62.667
X124.268Y-119.817
X128.84Y-81.717
X133.666Y-100.767
X136.46Y-34.01
X138.492Y-62.667
X143.318Y-119.817
X147.89Y-81.796
X152.716Y-100.767
X157.542Y-62.667
X160.336Y-34.01
X162.368Y-119.817
X166.94Y-81.717
X171.766Y-100.767
X176.592Y-62.667
X181.418Y-119.817
X185.99Y-81.717
X190.816Y-100.767
X192.842Y-34.01
X195.642Y-62.667
X200.468Y-119.817
X205.04Y-81.717
X209.866Y-100.767
X214.692Y-62.667
X216.724Y-34.01
X219.522Y-119.819
X224.09Y-81.717
X228.916Y-100.767
X233.742Y-62.667
X238.562Y-119.839
X240.6Y-34.01
X243.14Y-81.717
X248.22Y-100.767
X252.792Y-62.667
X257.618Y-119.817
X262.19Y-81.717
X264.476Y-34.01
X267.27Y-100.767
X269.048Y-138.867
X271.842Y-62.667
X281.24Y-81.717
X286.32Y-100.767
X288.352Y-34.01
X290.892Y-62.667
X292.924Y-138.867
X293.432Y-119.817
X307.656Y-91.369
X309.942Y-62.667
X337.815Y-119.766
X342.543Y-62.602
X356.865Y-100.716
X356.865Y-119.766
X371.139Y-62.602
X375.915Y-119.766
X404.544Y-62.568
X404.544Y-81.618
X404.544Y-100.668
X404.544Y-119.718
X414.196Y-138.768
X423.594Y-62.568
X423.594Y-81.618
X423.594Y-100.668
X423.594Y-119.718
X442.644Y-62.568
X442.644Y-81.618
X442.644Y-100.668
X442.644Y-119.718
X442.644Y-138.768
X461.694Y-62.568
X461.694Y-81.618
X461.694Y-100.668
X461.694Y-129.27
M30
