%TF.GenerationSoftware,KiCad,Pcbnew,8.0.1*%
%TF.CreationDate,2024-06-21T10:07:37+10:00*%
%TF.ProjectId,A1200KBv2,41313230-304b-4427-9632-2e6b69636164,rev?*%
%TF.SameCoordinates,Original*%
%TF.FileFunction,Soldermask,Top*%
%TF.FilePolarity,Negative*%
%FSLAX46Y46*%
G04 Gerber Fmt 4.6, Leading zero omitted, Abs format (unit mm)*
G04 Created by KiCad (PCBNEW 8.0.1) date 2024-06-21 10:07:37*
%MOMM*%
%LPD*%
G01*
G04 APERTURE LIST*
G04 Aperture macros list*
%AMRoundRect*
0 Rectangle with rounded corners*
0 $1 Rounding radius*
0 $2 $3 $4 $5 $6 $7 $8 $9 X,Y pos of 4 corners*
0 Add a 4 corners polygon primitive as box body*
4,1,4,$2,$3,$4,$5,$6,$7,$8,$9,$2,$3,0*
0 Add four circle primitives for the rounded corners*
1,1,$1+$1,$2,$3*
1,1,$1+$1,$4,$5*
1,1,$1+$1,$6,$7*
1,1,$1+$1,$8,$9*
0 Add four rect primitives between the rounded corners*
20,1,$1+$1,$2,$3,$4,$5,0*
20,1,$1+$1,$4,$5,$6,$7,0*
20,1,$1+$1,$6,$7,$8,$9,0*
20,1,$1+$1,$8,$9,$2,$3,0*%
G04 Aperture macros list end*
%ADD10C,3.200000*%
%ADD11C,5.100000*%
%ADD12C,5.250000*%
%ADD13RoundRect,0.250000X-0.450000X0.325000X-0.450000X-0.325000X0.450000X-0.325000X0.450000X0.325000X0*%
%ADD14RoundRect,0.250000X0.325000X0.450000X-0.325000X0.450000X-0.325000X-0.450000X0.325000X-0.450000X0*%
%ADD15C,1.524000*%
G04 APERTURE END LIST*
D10*
%TO.C,K32*%
X89758000Y-133866800D03*
X89758000Y-143866800D03*
X99758000Y-133866800D03*
D11*
X171258000Y-138866800D03*
D10*
X242758000Y-133866800D03*
X252758000Y-133866800D03*
X252758000Y-143866800D03*
%TD*%
D11*
%TO.C,K96*%
X461694000Y-129270400D03*
%TD*%
%TO.C,K83*%
X414196000Y-138768400D03*
%TD*%
%TO.C,K71*%
X307631000Y-91393800D03*
%TD*%
%TO.C,K66*%
X293432000Y-119816800D03*
%TD*%
%TO.C,K3*%
X43242000Y-81716800D03*
%TD*%
D12*
%TO.C,K60*%
X257618000Y-119816800D03*
%TD*%
%TO.C,K8*%
X71690000Y-81716800D03*
%TD*%
%TO.C,K56*%
X240600000Y-34010000D03*
%TD*%
D10*
%TO.C,*%
X205000000Y-63000000D03*
%TD*%
%TO.C,*%
X149000000Y-38000000D03*
%TD*%
D12*
%TO.C,K64*%
X281240000Y-81716800D03*
%TD*%
%TO.C,K68*%
X288352000Y-34010000D03*
%TD*%
%TO.C,K53*%
X243140000Y-81716800D03*
%TD*%
D10*
%TO.C,*%
X258000000Y-102000000D03*
%TD*%
D12*
%TO.C,K81*%
X404544000Y-100668400D03*
%TD*%
%TO.C,K26*%
X124268000Y-119816800D03*
%TD*%
D13*
%TO.C,D3*%
X95000000Y-137975000D03*
X95000000Y-140025000D03*
%TD*%
D12*
%TO.C,K41*%
X181418000Y-119816800D03*
%TD*%
%TO.C,K34*%
X157542000Y-62666800D03*
%TD*%
D10*
%TO.C,*%
X26000000Y-100000000D03*
%TD*%
D12*
%TO.C,K13*%
X81342000Y-62666800D03*
%TD*%
%TO.C,K58*%
X262190000Y-81716800D03*
%TD*%
%TO.C,K52*%
X233742000Y-62666800D03*
%TD*%
%TO.C,K18*%
X100392000Y-62666800D03*
%TD*%
%TO.C,K88*%
X442644000Y-62568400D03*
%TD*%
%TO.C,K51*%
X216724000Y-34010000D03*
%TD*%
%TO.C,K12*%
X73722000Y-138866800D03*
%TD*%
%TO.C,K70*%
X286320000Y-100766800D03*
%TD*%
%TO.C,K2*%
X38514000Y-62666800D03*
%TD*%
%TO.C,K25*%
X114616000Y-100766800D03*
%TD*%
%TO.C,K17*%
X88708000Y-34010000D03*
%TD*%
%TO.C,K49*%
X209866000Y-100766800D03*
%TD*%
D10*
%TO.C,*%
X181000000Y-102000000D03*
%TD*%
D12*
%TO.C,K24*%
X128840000Y-81716800D03*
%TD*%
%TO.C,K43*%
X195642000Y-62666800D03*
%TD*%
%TO.C,K47*%
X214692000Y-62666800D03*
%TD*%
D13*
%TO.C,D4*%
X90000000Y-137975000D03*
X90000000Y-140025000D03*
%TD*%
D12*
%TO.C,K48*%
X224090000Y-81716800D03*
%TD*%
D10*
%TO.C,*%
X253000000Y-44000000D03*
%TD*%
D12*
%TO.C,K69*%
X290892000Y-62666800D03*
%TD*%
%TO.C,K85*%
X423594000Y-81618400D03*
%TD*%
%TO.C,K35*%
X166940000Y-81716800D03*
%TD*%
%TO.C,K40*%
X171766000Y-100766800D03*
%TD*%
%TO.C,K37*%
X162368000Y-119816800D03*
%TD*%
D10*
%TO.C,*%
X147000000Y-133000000D03*
%TD*%
D12*
%TO.C,K20*%
X95566000Y-100766800D03*
%TD*%
D10*
%TO.C,*%
X60000000Y-138000000D03*
%TD*%
D12*
%TO.C,K75*%
X356865200Y-100716000D03*
%TD*%
%TO.C,K67*%
X292924000Y-138866800D03*
%TD*%
D10*
%TO.C,*%
X67000000Y-101000000D03*
%TD*%
D12*
%TO.C,K7*%
X62292000Y-62666800D03*
%TD*%
%TO.C,K76*%
X356865200Y-119766000D03*
%TD*%
%TO.C,K5*%
X40956000Y-119816800D03*
%TD*%
%TO.C,K9*%
X57466000Y-100766800D03*
%TD*%
%TO.C,K77*%
X371139200Y-62602000D03*
%TD*%
%TO.C,K31*%
X143318000Y-119816800D03*
%TD*%
%TO.C,K19*%
X109790000Y-81716800D03*
%TD*%
%TO.C,K73*%
X337815200Y-119766000D03*
%TD*%
D10*
%TO.C,*%
X325000000Y-63000000D03*
%TD*%
D12*
%TO.C,K86*%
X423594000Y-100668400D03*
%TD*%
%TO.C,K90*%
X442644000Y-100668400D03*
%TD*%
%TO.C,K57*%
X252792000Y-62666800D03*
%TD*%
D10*
%TO.C,*%
X208000000Y-133000000D03*
%TD*%
D12*
%TO.C,K59*%
X248220000Y-100766800D03*
%TD*%
D10*
%TO.C,*%
X119000000Y-85000000D03*
%TD*%
D12*
%TO.C,K15*%
X76516000Y-100766800D03*
%TD*%
%TO.C,K33*%
X160336000Y-34010000D03*
%TD*%
%TO.C,K29*%
X147890000Y-81795600D03*
%TD*%
%TO.C,K16*%
X86168000Y-119816800D03*
%TD*%
%TO.C,K93*%
X461694000Y-62568400D03*
%TD*%
%TO.C,K54*%
X228916000Y-100766800D03*
%TD*%
%TO.C,K28*%
X138492000Y-62666800D03*
%TD*%
D10*
%TO.C,*%
X26000000Y-50000000D03*
%TD*%
D12*
%TO.C,K27*%
X136460000Y-34010000D03*
%TD*%
%TO.C,K11*%
X64892400Y-33894800D03*
%TD*%
%TO.C,K55*%
X238562000Y-119838800D03*
%TD*%
%TO.C,K4*%
X36130000Y-100766800D03*
%TD*%
D10*
%TO.C,*%
X26000000Y-132000000D03*
%TD*%
D12*
%TO.C,K92*%
X442644000Y-138768400D03*
%TD*%
%TO.C,K10*%
X67118000Y-119816800D03*
%TD*%
%TO.C,K95*%
X461694000Y-100668400D03*
%TD*%
%TO.C,K65*%
X267270000Y-100766800D03*
%TD*%
%TO.C,K21*%
X105218000Y-119816800D03*
%TD*%
%TO.C,K74*%
X342543200Y-62602000D03*
%TD*%
%TO.C,K39*%
X185990000Y-81716800D03*
%TD*%
%TO.C,K23*%
X119442000Y-62666800D03*
%TD*%
%TO.C,K82*%
X404544000Y-119718400D03*
%TD*%
D10*
%TO.C,*%
X469000000Y-72000000D03*
%TD*%
D12*
%TO.C,K87*%
X423594000Y-119718400D03*
%TD*%
D10*
%TO.C,*%
X469000000Y-112000000D03*
%TD*%
D12*
%TO.C,K61*%
X269048000Y-138866800D03*
%TD*%
D10*
%TO.C,*%
X388000000Y-134000000D03*
%TD*%
D12*
%TO.C,K78*%
X375915200Y-119766000D03*
%TD*%
D13*
%TO.C,D2*%
X100000000Y-137975000D03*
X100000000Y-140025000D03*
%TD*%
D12*
%TO.C,K80*%
X404544000Y-81618400D03*
%TD*%
%TO.C,K63*%
X271842000Y-62666800D03*
%TD*%
%TO.C,K22*%
X112584000Y-34038000D03*
%TD*%
%TO.C,K38*%
X176592000Y-62666800D03*
%TD*%
%TO.C,K14*%
X90740000Y-81716800D03*
%TD*%
D10*
%TO.C,*%
X388000000Y-66000000D03*
%TD*%
D12*
%TO.C,K36*%
X152716000Y-100766800D03*
%TD*%
%TO.C,K42*%
X192842000Y-34010000D03*
%TD*%
%TO.C,K44*%
X205040000Y-81716800D03*
%TD*%
%TO.C,K84*%
X423594000Y-62568400D03*
%TD*%
%TO.C,K94*%
X461694000Y-81618400D03*
%TD*%
D10*
%TO.C,*%
X26000000Y-65000000D03*
%TD*%
D12*
%TO.C,K50*%
X219522000Y-119818800D03*
%TD*%
%TO.C,K46*%
X200468000Y-119816800D03*
%TD*%
%TO.C,K89*%
X442644000Y-81618400D03*
%TD*%
%TO.C,K62*%
X264476000Y-34010000D03*
%TD*%
%TO.C,K45*%
X190816000Y-100766800D03*
%TD*%
%TO.C,K91*%
X442644000Y-119718400D03*
%TD*%
%TO.C,K30*%
X133666000Y-100766800D03*
%TD*%
%TO.C,K6*%
X49846000Y-138866800D03*
%TD*%
%TO.C,K79*%
X404544000Y-62568400D03*
%TD*%
%TO.C,K1*%
X33844000Y-34108000D03*
%TD*%
D10*
%TO.C,*%
X77000000Y-38000000D03*
%TD*%
D12*
%TO.C,K72*%
X309942000Y-62666800D03*
%TD*%
D14*
%TO.C,D1*%
X57876765Y-95557615D03*
X55826765Y-95557615D03*
%TD*%
D10*
%TO.C,*%
X312000000Y-134000000D03*
%TD*%
D15*
%TO.C,J1*%
X157000000Y-47500000D03*
X158250000Y-50000000D03*
X159500000Y-47500000D03*
X160750000Y-50000000D03*
X162000000Y-47500000D03*
X163250000Y-50000000D03*
X164500000Y-47500000D03*
X165750000Y-50000000D03*
X167000000Y-47500000D03*
X168250000Y-50000000D03*
X169500000Y-47500000D03*
X170750000Y-50000000D03*
X172000000Y-47500000D03*
X173250000Y-50000000D03*
X174500000Y-47500000D03*
X175750000Y-50000000D03*
X177000000Y-47500000D03*
X178250000Y-50000000D03*
X179500000Y-47500000D03*
X180750000Y-50000000D03*
X182000000Y-47500000D03*
X183250000Y-50000000D03*
X184500000Y-47500000D03*
X185750000Y-50000000D03*
X187000000Y-47500000D03*
X188250000Y-50000000D03*
X189500000Y-47500000D03*
X190750000Y-50000000D03*
X192000000Y-47500000D03*
X193250000Y-50000000D03*
X194500000Y-47500000D03*
X195750000Y-50000000D03*
%TD*%
M02*
