%TF.GenerationSoftware,KiCad,Pcbnew,8.0.1*%
%TF.CreationDate,2024-06-20T10:56:09+10:00*%
%TF.ProjectId,A1200KBv2,41313230-304b-4427-9632-2e6b69636164,rev?*%
%TF.SameCoordinates,Original*%
%TF.FileFunction,Soldermask,Bot*%
%TF.FilePolarity,Negative*%
%FSLAX46Y46*%
G04 Gerber Fmt 4.6, Leading zero omitted, Abs format (unit mm)*
G04 Created by KiCad (PCBNEW 8.0.1) date 2024-06-20 10:56:09*
%MOMM*%
%LPD*%
G01*
G04 APERTURE LIST*
%ADD10C,3.200000*%
%ADD11C,3.987800*%
%ADD12C,3.048000*%
%ADD13C,2.300000*%
%ADD14C,5.100000*%
%ADD15C,5.250000*%
%ADD16C,2.500000*%
%ADD17C,1.524000*%
G04 APERTURE END LIST*
D10*
%TO.C,*%
X26000000Y-45000000D03*
%TD*%
%TO.C,*%
X26000000Y-100000000D03*
%TD*%
%TO.C,*%
X469000000Y-146000000D03*
%TD*%
%TO.C,*%
X461000000Y-112000000D03*
%TD*%
%TO.C,*%
X469000000Y-72000000D03*
%TD*%
%TO.C,*%
X67000000Y-101000000D03*
%TD*%
%TO.C,*%
X26000000Y-132000000D03*
%TD*%
%TO.C,*%
X452000000Y-58000000D03*
%TD*%
%TO.C,*%
X205000000Y-63000000D03*
%TD*%
%TO.C,*%
X258000000Y-102000000D03*
%TD*%
%TO.C,*%
X181000000Y-102000000D03*
%TD*%
%TO.C,*%
X119000000Y-85000000D03*
%TD*%
%TO.C,*%
X325000000Y-63000000D03*
%TD*%
%TO.C,*%
X390000000Y-55000000D03*
%TD*%
%TO.C,*%
X469000000Y-111000000D03*
%TD*%
%TO.C,*%
X389000000Y-134000000D03*
%TD*%
%TO.C,*%
X312000000Y-134000000D03*
%TD*%
%TO.C,*%
X208000000Y-133000000D03*
%TD*%
%TO.C,*%
X147000000Y-133000000D03*
%TD*%
%TO.C,*%
X60000000Y-138000000D03*
%TD*%
%TO.C,*%
X253000000Y-44000000D03*
%TD*%
%TO.C,*%
X77000000Y-38000000D03*
%TD*%
%TO.C,*%
X149000000Y-38000000D03*
%TD*%
%TO.C,*%
X26000000Y-65000000D03*
%TD*%
D11*
%TO.C,*%
X453439000Y-141176650D03*
%TD*%
%TO.C,*%
X453439000Y-117364150D03*
%TD*%
%TO.C,*%
X426102250Y-130513400D03*
%TD*%
%TO.C,*%
X402289750Y-130513400D03*
%TD*%
D12*
%TO.C,*%
X468679000Y-141176650D03*
%TD*%
%TO.C,*%
X468679000Y-117364150D03*
%TD*%
%TO.C,*%
X426102250Y-145753400D03*
%TD*%
%TO.C,*%
X402289750Y-145753400D03*
%TD*%
%TO.C,*%
X55148250Y-74731800D03*
%TD*%
%TO.C,*%
X31335750Y-74731800D03*
%TD*%
%TO.C,*%
X300671000Y-79430800D03*
%TD*%
%TO.C,*%
X300671000Y-103306800D03*
%TD*%
%TO.C,*%
X305338250Y-112831800D03*
%TD*%
%TO.C,*%
X281525750Y-112831800D03*
%TD*%
D11*
%TO.C,*%
X315911000Y-103306800D03*
%TD*%
%TO.C,*%
X315911000Y-79430800D03*
%TD*%
%TO.C,*%
X305338250Y-128071800D03*
%TD*%
%TO.C,*%
X281525750Y-128071800D03*
%TD*%
%TO.C,*%
X55148250Y-89971800D03*
%TD*%
%TO.C,*%
X31335750Y-89971800D03*
%TD*%
D13*
%TO.C,K32*%
X173858000Y-144616800D03*
X166858000Y-143566800D03*
D10*
X252758000Y-143866800D03*
X252758000Y-133866800D03*
X242758000Y-133866800D03*
D12*
X237933000Y-146176250D03*
D11*
X237933000Y-130936250D03*
D10*
X233258000Y-133866800D03*
D12*
X228408000Y-146176250D03*
D11*
X228408000Y-130936250D03*
D12*
X221258000Y-146176250D03*
D11*
X221258000Y-130936250D03*
D14*
X171258000Y-138866800D03*
D11*
X171258000Y-138866800D03*
D12*
X121258000Y-146176250D03*
D11*
X121258000Y-130936250D03*
D12*
X114108000Y-146176250D03*
D11*
X114108000Y-130936250D03*
D10*
X109258000Y-133866800D03*
D12*
X104583000Y-146176250D03*
D11*
X104583000Y-130936250D03*
D10*
X99758000Y-133866800D03*
X89758000Y-143866800D03*
X89758000Y-133866800D03*
%TD*%
D15*
%TO.C,K1*%
X33844000Y-34108000D03*
D16*
X38244000Y-29408000D03*
X31244000Y-28358000D03*
%TD*%
%TO.C,K60*%
X260218000Y-125566800D03*
X253218000Y-124516800D03*
D15*
X257618000Y-119816800D03*
%TD*%
D16*
%TO.C,K8*%
X74290000Y-87466800D03*
X67290000Y-86416800D03*
D15*
X71690000Y-81716800D03*
%TD*%
D16*
%TO.C,K56*%
X238000000Y-28260000D03*
X245000000Y-29310000D03*
D15*
X240600000Y-34010000D03*
%TD*%
D16*
%TO.C,K64*%
X283840000Y-87466800D03*
X276840000Y-86416800D03*
D15*
X281240000Y-81716800D03*
%TD*%
D16*
%TO.C,K68*%
X285752000Y-28260000D03*
X292752000Y-29310000D03*
D15*
X288352000Y-34010000D03*
%TD*%
D16*
%TO.C,K53*%
X245740000Y-87466800D03*
X238740000Y-86416800D03*
D15*
X243140000Y-81716800D03*
%TD*%
D16*
%TO.C,K81*%
X407144000Y-106418400D03*
X400144000Y-105368400D03*
D15*
X404544000Y-100668400D03*
%TD*%
D16*
%TO.C,K26*%
X126868000Y-125566800D03*
X119868000Y-124516800D03*
D15*
X124268000Y-119816800D03*
%TD*%
D16*
%TO.C,K41*%
X184018000Y-125566800D03*
X177018000Y-124516800D03*
D15*
X181418000Y-119816800D03*
%TD*%
D16*
%TO.C,K34*%
X160142000Y-68416800D03*
X153142000Y-67366800D03*
D15*
X157542000Y-62666800D03*
%TD*%
D16*
%TO.C,K13*%
X83942000Y-68416800D03*
X76942000Y-67366800D03*
D15*
X81342000Y-62666800D03*
%TD*%
D16*
%TO.C,K58*%
X264790000Y-87466800D03*
X257790000Y-86416800D03*
D15*
X262190000Y-81716800D03*
%TD*%
D16*
%TO.C,K52*%
X236342000Y-68416800D03*
X229342000Y-67366800D03*
D15*
X233742000Y-62666800D03*
%TD*%
D16*
%TO.C,K18*%
X102992000Y-68416800D03*
X95992000Y-67366800D03*
D15*
X100392000Y-62666800D03*
%TD*%
D16*
%TO.C,K88*%
X445244000Y-68318400D03*
X438244000Y-67268400D03*
D15*
X442644000Y-62568400D03*
%TD*%
D16*
%TO.C,K51*%
X214124000Y-28260000D03*
X221124000Y-29310000D03*
D15*
X216724000Y-34010000D03*
%TD*%
D16*
%TO.C,K12*%
X76322000Y-144616800D03*
X69322000Y-143566800D03*
D15*
X73722000Y-138866800D03*
%TD*%
D16*
%TO.C,K70*%
X288920000Y-106516800D03*
X281920000Y-105466800D03*
D15*
X286320000Y-100766800D03*
%TD*%
D16*
%TO.C,K2*%
X41114000Y-68416800D03*
X34114000Y-67366800D03*
D15*
X38514000Y-62666800D03*
%TD*%
D16*
%TO.C,K25*%
X117216000Y-106516800D03*
X110216000Y-105466800D03*
D15*
X114616000Y-100766800D03*
%TD*%
D16*
%TO.C,K17*%
X86108000Y-28260000D03*
X93108000Y-29310000D03*
D15*
X88708000Y-34010000D03*
%TD*%
D16*
%TO.C,K49*%
X212466000Y-106516800D03*
X205466000Y-105466800D03*
D15*
X209866000Y-100766800D03*
%TD*%
D16*
%TO.C,K24*%
X131440000Y-87466800D03*
X124440000Y-86416800D03*
D15*
X128840000Y-81716800D03*
%TD*%
D16*
%TO.C,K43*%
X198242000Y-68416800D03*
X191242000Y-67366800D03*
D15*
X195642000Y-62666800D03*
%TD*%
D16*
%TO.C,K47*%
X217292000Y-68416800D03*
X210292000Y-67366800D03*
D15*
X214692000Y-62666800D03*
%TD*%
D16*
%TO.C,K48*%
X226690000Y-87466800D03*
X219690000Y-86416800D03*
D15*
X224090000Y-81716800D03*
%TD*%
D16*
%TO.C,K69*%
X293492000Y-68416800D03*
X286492000Y-67366800D03*
D15*
X290892000Y-62666800D03*
%TD*%
D16*
%TO.C,K85*%
X426194000Y-87368400D03*
X419194000Y-86318400D03*
D15*
X423594000Y-81618400D03*
%TD*%
D16*
%TO.C,K35*%
X169540000Y-87466800D03*
X162540000Y-86416800D03*
D15*
X166940000Y-81716800D03*
%TD*%
D16*
%TO.C,K40*%
X174366000Y-106516800D03*
X167366000Y-105466800D03*
D15*
X171766000Y-100766800D03*
%TD*%
D16*
%TO.C,K37*%
X164968000Y-125566800D03*
X157968000Y-124516800D03*
D15*
X162368000Y-119816800D03*
%TD*%
D16*
%TO.C,K20*%
X98166000Y-106516800D03*
X91166000Y-105466800D03*
D15*
X95566000Y-100766800D03*
%TD*%
D16*
%TO.C,K75*%
X359465200Y-106466000D03*
X352465200Y-105416000D03*
D15*
X356865200Y-100716000D03*
%TD*%
D16*
%TO.C,K67*%
X295524000Y-144616800D03*
X288524000Y-143566800D03*
D15*
X292924000Y-138866800D03*
%TD*%
D16*
%TO.C,K7*%
X64892000Y-68416800D03*
X57892000Y-67366800D03*
D15*
X62292000Y-62666800D03*
%TD*%
D16*
%TO.C,K76*%
X359465200Y-125516000D03*
X352465200Y-124466000D03*
D15*
X356865200Y-119766000D03*
%TD*%
D16*
%TO.C,K5*%
X43556000Y-125566800D03*
X36556000Y-124516800D03*
D15*
X40956000Y-119816800D03*
%TD*%
D16*
%TO.C,K9*%
X60066000Y-106516800D03*
X53066000Y-105466800D03*
D15*
X57466000Y-100766800D03*
%TD*%
D16*
%TO.C,K71*%
X310256000Y-97118800D03*
X303256000Y-96068800D03*
D15*
X307656000Y-91368800D03*
%TD*%
D16*
%TO.C,K77*%
X373739200Y-68352000D03*
X366739200Y-67302000D03*
D15*
X371139200Y-62602000D03*
%TD*%
D16*
%TO.C,K31*%
X145918000Y-125566800D03*
X138918000Y-124516800D03*
D15*
X143318000Y-119816800D03*
%TD*%
D16*
%TO.C,K19*%
X112390000Y-87466800D03*
X105390000Y-86416800D03*
D15*
X109790000Y-81716800D03*
%TD*%
D16*
%TO.C,K73*%
X340415200Y-125516000D03*
X333415200Y-124466000D03*
D15*
X337815200Y-119766000D03*
%TD*%
D16*
%TO.C,K86*%
X426194000Y-106418400D03*
X419194000Y-105368400D03*
D15*
X423594000Y-100668400D03*
%TD*%
D16*
%TO.C,K90*%
X445244000Y-106418400D03*
X438244000Y-105368400D03*
D15*
X442644000Y-100668400D03*
%TD*%
D16*
%TO.C,K57*%
X255392000Y-68416800D03*
X248392000Y-67366800D03*
D15*
X252792000Y-62666800D03*
%TD*%
D16*
%TO.C,K59*%
X250820000Y-106516800D03*
X243820000Y-105466800D03*
D15*
X248220000Y-100766800D03*
%TD*%
D16*
%TO.C,K15*%
X79116000Y-106516800D03*
X72116000Y-105466800D03*
D15*
X76516000Y-100766800D03*
%TD*%
D16*
%TO.C,K33*%
X157736000Y-28260000D03*
X164736000Y-29310000D03*
D15*
X160336000Y-34010000D03*
%TD*%
D16*
%TO.C,K29*%
X150490000Y-87545600D03*
X143490000Y-86495600D03*
D15*
X147890000Y-81795600D03*
%TD*%
D16*
%TO.C,K16*%
X88768000Y-125566800D03*
X81768000Y-124516800D03*
D15*
X86168000Y-119816800D03*
%TD*%
D16*
%TO.C,K93*%
X464294000Y-68318400D03*
X457294000Y-67268400D03*
D15*
X461694000Y-62568400D03*
%TD*%
D16*
%TO.C,K54*%
X231516000Y-106516800D03*
X224516000Y-105466800D03*
D15*
X228916000Y-100766800D03*
%TD*%
D16*
%TO.C,K28*%
X141092000Y-68416800D03*
X134092000Y-67366800D03*
D15*
X138492000Y-62666800D03*
%TD*%
D16*
%TO.C,K27*%
X133860000Y-28260000D03*
X140860000Y-29310000D03*
D15*
X136460000Y-34010000D03*
%TD*%
D16*
%TO.C,K11*%
X62292400Y-28144800D03*
X69292400Y-29194800D03*
D15*
X64892400Y-33894800D03*
%TD*%
D16*
%TO.C,K55*%
X241162000Y-125588800D03*
X234162000Y-124538800D03*
D15*
X238562000Y-119838800D03*
%TD*%
D16*
%TO.C,K4*%
X38730000Y-106516800D03*
X31730000Y-105466800D03*
D15*
X36130000Y-100766800D03*
%TD*%
D16*
%TO.C,K92*%
X445244000Y-144518400D03*
X438244000Y-143468400D03*
D15*
X442644000Y-138768400D03*
%TD*%
D16*
%TO.C,K10*%
X69718000Y-125566800D03*
X62718000Y-124516800D03*
D15*
X67118000Y-119816800D03*
%TD*%
D16*
%TO.C,K95*%
X464294000Y-106418400D03*
X457294000Y-105368400D03*
D15*
X461694000Y-100668400D03*
%TD*%
D16*
%TO.C,K65*%
X269870000Y-106516800D03*
X262870000Y-105466800D03*
D15*
X267270000Y-100766800D03*
%TD*%
D16*
%TO.C,K21*%
X107818000Y-125566800D03*
X100818000Y-124516800D03*
D15*
X105218000Y-119816800D03*
%TD*%
D16*
%TO.C,K74*%
X345143200Y-68352000D03*
X338143200Y-67302000D03*
D15*
X342543200Y-62602000D03*
%TD*%
D16*
%TO.C,K39*%
X188590000Y-87466800D03*
X181590000Y-86416800D03*
D15*
X185990000Y-81716800D03*
%TD*%
D16*
%TO.C,K23*%
X122042000Y-68416800D03*
X115042000Y-67366800D03*
D15*
X119442000Y-62666800D03*
%TD*%
D16*
%TO.C,K82*%
X407144000Y-125468400D03*
X400144000Y-124418400D03*
D15*
X404544000Y-119718400D03*
%TD*%
D16*
%TO.C,K87*%
X426194000Y-125468400D03*
X419194000Y-124418400D03*
D15*
X423594000Y-119718400D03*
%TD*%
D16*
%TO.C,K61*%
X271648000Y-144616800D03*
X264648000Y-143566800D03*
D15*
X269048000Y-138866800D03*
%TD*%
D16*
%TO.C,K66*%
X296032000Y-125566800D03*
X289032000Y-124516800D03*
D15*
X293432000Y-119816800D03*
%TD*%
D16*
%TO.C,K78*%
X378515200Y-125516000D03*
X371515200Y-124466000D03*
D15*
X375915200Y-119766000D03*
%TD*%
D16*
%TO.C,K80*%
X407144000Y-87368400D03*
X400144000Y-86318400D03*
D15*
X404544000Y-81618400D03*
%TD*%
D16*
%TO.C,K63*%
X274442000Y-68416800D03*
X267442000Y-67366800D03*
D15*
X271842000Y-62666800D03*
%TD*%
D16*
%TO.C,K22*%
X109984000Y-28288000D03*
X116984000Y-29338000D03*
D15*
X112584000Y-34038000D03*
%TD*%
D16*
%TO.C,K38*%
X179192000Y-68416800D03*
X172192000Y-67366800D03*
D15*
X176592000Y-62666800D03*
%TD*%
D16*
%TO.C,K14*%
X93340000Y-87466800D03*
X86340000Y-86416800D03*
D15*
X90740000Y-81716800D03*
%TD*%
D16*
%TO.C,K96*%
X464294000Y-135020400D03*
X457294000Y-133970400D03*
D15*
X461694000Y-129270400D03*
%TD*%
D16*
%TO.C,K83*%
X416796000Y-144518400D03*
X409796000Y-143468400D03*
D15*
X414196000Y-138768400D03*
%TD*%
D16*
%TO.C,K36*%
X155316000Y-106516800D03*
X148316000Y-105466800D03*
D15*
X152716000Y-100766800D03*
%TD*%
D16*
%TO.C,K42*%
X190242000Y-28260000D03*
X197242000Y-29310000D03*
D15*
X192842000Y-34010000D03*
%TD*%
D16*
%TO.C,K44*%
X207640000Y-87466800D03*
X200640000Y-86416800D03*
D15*
X205040000Y-81716800D03*
%TD*%
D16*
%TO.C,K84*%
X426194000Y-68318400D03*
X419194000Y-67268400D03*
D15*
X423594000Y-62568400D03*
%TD*%
D16*
%TO.C,K94*%
X464294000Y-87368400D03*
X457294000Y-86318400D03*
D15*
X461694000Y-81618400D03*
%TD*%
D16*
%TO.C,K50*%
X222122000Y-125568800D03*
X215122000Y-124518800D03*
D15*
X219522000Y-119818800D03*
%TD*%
D16*
%TO.C,K46*%
X203068000Y-125566800D03*
X196068000Y-124516800D03*
D15*
X200468000Y-119816800D03*
%TD*%
D16*
%TO.C,K89*%
X445244000Y-87368400D03*
X438244000Y-86318400D03*
D15*
X442644000Y-81618400D03*
%TD*%
D16*
%TO.C,K62*%
X261876000Y-28260000D03*
X268876000Y-29310000D03*
D15*
X264476000Y-34010000D03*
%TD*%
D16*
%TO.C,K45*%
X193416000Y-106516800D03*
X186416000Y-105466800D03*
D15*
X190816000Y-100766800D03*
%TD*%
D16*
%TO.C,K91*%
X445244000Y-125468400D03*
X438244000Y-124418400D03*
D15*
X442644000Y-119718400D03*
%TD*%
D16*
%TO.C,K30*%
X136266000Y-106516800D03*
X129266000Y-105466800D03*
D15*
X133666000Y-100766800D03*
%TD*%
D16*
%TO.C,K6*%
X52446000Y-144616800D03*
X45446000Y-143566800D03*
D15*
X49846000Y-138866800D03*
%TD*%
D16*
%TO.C,K79*%
X407144000Y-68318400D03*
X400144000Y-67268400D03*
D15*
X404544000Y-62568400D03*
%TD*%
D16*
%TO.C,K72*%
X312542000Y-68416800D03*
X305542000Y-67366800D03*
D15*
X309942000Y-62666800D03*
%TD*%
D16*
%TO.C,K3*%
X45842000Y-87466800D03*
X38842000Y-86416800D03*
D15*
X43242000Y-81716800D03*
%TD*%
D17*
%TO.C,J1*%
X157000000Y-47500000D03*
X158250000Y-50000000D03*
X159500000Y-47500000D03*
X160750000Y-50000000D03*
X162000000Y-47500000D03*
X163250000Y-50000000D03*
X164500000Y-47500000D03*
X165750000Y-50000000D03*
X167000000Y-47500000D03*
X168250000Y-50000000D03*
X169500000Y-47500000D03*
X170750000Y-50000000D03*
X172000000Y-47500000D03*
X173250000Y-50000000D03*
X174500000Y-47500000D03*
X175750000Y-50000000D03*
X177000000Y-47500000D03*
X178250000Y-50000000D03*
X179500000Y-47500000D03*
X180750000Y-50000000D03*
X182000000Y-47500000D03*
X183250000Y-50000000D03*
X184500000Y-47500000D03*
X185750000Y-50000000D03*
X187000000Y-47500000D03*
X188250000Y-50000000D03*
X189500000Y-47500000D03*
X190750000Y-50000000D03*
X192000000Y-47500000D03*
X193250000Y-50000000D03*
X194500000Y-47500000D03*
X195750000Y-50000000D03*
%TD*%
M02*
